<?xml version="1.0" encoding="utf-8"?>
<!-- Generator: Adobe Illustrator 15.0.0, SVG Export Plug-In  -->
<!DOCTYPE svg PUBLIC "-//W3C//DTD SVG 1.1//EN" "http://www.w3.org/Graphics/SVG/1.1/DTD/svg11.dtd" [
	<!ENTITY ns_flows "http://ns.adobe.com/Flows/1.0/">
]>
<svg version="1.1"
	 xmlns="http://www.w3.org/2000/svg" xmlns:xlink="http://www.w3.org/1999/xlink" xmlns:a="http://ns.adobe.com/AdobeSVGViewerExtensions/3.0/"
	 x="0px" y="0px" width="32px" height="22px" viewBox="0 0 32 22" enable-background="new 0 0 32 22" xml:space="preserve">
<defs>
</defs>
<rect fill="#603913" width="32" height="22"/>
<path fill="#E6E7E8" d="M28.845,16.29c-0.086-0.243-0.145-0.358-0.27-0.527c-0.164-0.22-0.729-1.405-1.037-2.17
	c-0.066-0.169-0.15-0.35-0.184-0.403c-0.082-0.125-0.291-0.209-0.57-0.229c-1.951-0.286-1.613-1.94-1.375-3.464
	c0.596,0.083,0.93-0.024,1.293-0.11c0.107,0.172,0.078,0.407-0.01,0.646c-0.088,0.322-0.141,0.603,0.152,0.913
	c0.08,0.071,0.123,0.148,0.123,0.222c0.055,0.446,0.316,0.821,0.75,0.967c0.166,0.062,0.334,0.13,0.373,0.151
	c0.256,0.136,0.35-0.063,0.17-0.36c-0.217-0.362-0.232-0.454-0.236-1.424l-0.004-0.901c-0.189-0.33-0.455-0.628-0.795-0.804
	c-0.271-0.117-0.709-0.09-1.098,0.065c-0.504,0.202-0.938,0.076-1.174-0.342c-0.111-0.197-0.51-0.527-0.955-0.792
	c-1.762-1.01-3.527-2.028-5.555-2.423c0.09-0.082,0.229-0.111,0.316-0.201c-0.361-0.253-0.793-0.377-1.225-0.446
	c-0.143-0.027-0.26-0.064-0.26-0.082c0-0.018,0.076-0.07,0.166-0.116c0.203-0.103,0.207-0.146,0.021-0.181
	c-0.082-0.116-0.795-0.283-1.289-0.31c-0.26-0.027,0.008-0.159-0.105-0.299c-0.096-0.147-0.523-0.201-1.607-0.2
	c-0.344,0.035-0.973,0.095-0.367-0.221c0.297-0.194,0.262-0.24-0.189-0.254c-0.547-0.005-1.449,0.361-0.971-0.2
	c-0.596-0.035-1.166,0.242-1.727,0.396c-0.098-0.151,0.127-0.338,0.09-0.512c-0.414,0.026-0.848,0.266-1.209,0.489l0.029-0.149
	c0.051-0.273-0.035-0.254-0.488,0.107C9.47,3.251,9.325,3.354,9.304,3.354C9.274,3.25,9.313,3.135,9.296,3.026
	c-0.08,0-0.199,0.113-0.355,0.332c-0.17,0.24-0.182,0.249-0.322,0.226C8.54,3.571,8.468,3.542,8.46,3.519
	C8.435,3.444,7.679,3.466,7.544,3.545C7.304,3.687,7.388,3.83,7.87,4.091c0.191,0.104,0.375,0.352,0.375,0.507
	C7.343,5.6,6.302,7.136,5.001,7.667c-0.158,0.03-0.668,0.348-0.908,0.566c-0.199,0.18-0.172,0.172-0.604,0.159
	c-0.35-0.011-0.396,0.013-0.396,0.2C3.091,8.746,3.298,9.114,3.528,9.368c0.273,0.3,0.521,0.424,0.855,0.429
	c0.314-0.004,0.531-0.183,0.811-0.299c0.072,0,0.244,0.147,0.473,0.4c0.193,0.212,0.164,0.263-0.158,0.282
	c-0.223,0.013-0.604,0.144-0.602,0.206c0.004,0.085,0.393,0.297,0.77,0.42c0.396,0.129,0.441,0.135,0.805,0.107
	c0.834-0.082,1.592-0.439,2.432-0.456c0.299,0.032,0.578,0.186,0.834,0.462c0.221,0.236,0.27,0.255,0.346,0.133
	c0.082-0.132,0.164-0.099,0.193,0.079c0.029,0.173-0.002,0.262-0.18,0.485c-0.137,0.172-0.297,0.265-0.65,0.379
	c-0.961,0.312-1.107,0.39-1.33,0.711c-0.283,0.375-0.564,0.834-1.025,1.007c-0.254,0.111-0.447,0.692-0.781,0.917
	c-0.295,0.346-0.549,0.734-0.646,1.182c-0.023,0.133-0.018,0.154,0.049,0.154c0.168-0.061,0.287-0.2,0.445-0.277
	c-0.047,0.237-0.25,0.4-0.313,0.625c0,0.067,0.027,0.072,0.271,0.049c0.566-0.088,1.078-0.47,1.273-1.018
	c0.096-0.321,0.135-0.371,0.27-0.341c0.203,0.044,0.375-0.106,0.504-0.445c0.184-0.478,0.463-0.721,0.992-0.857
	c0.338-0.105,0.6-0.429,0.967-0.422c-0.076,0.319-0.566,0.681-0.834,0.914c-0.816,0.676-1.758,1.521-2.102,2.553
	c0.053,0.083,0.23,0.031,0.496-0.146c0.248-0.166,0.42-0.235,0.381-0.153c-0.137,0.245-0.334,0.45-0.445,0.708
	c0.316,0.161,0.859,0.03,1.258-0.277c0.217-0.215,0.297-0.387,0.408-0.882c0.033-0.141,0.076-0.142,0.203-0.005l0.1,0.107
	c0.166-0.217,0.348-0.431,0.379-0.712c0.039-0.255,0.047-0.266,0.371-0.571c0.34-0.32,0.709-0.538,1.004-0.591
	c0.084-0.016,0.195-0.061,0.246-0.1c0.457-0.313,1.006-0.289,1.537-0.366c0.428-0.072,0.973-0.045,1.27-0.367l0.197-0.189
	l0.986-0.019c1.506-0.142,3.025-0.136,4.537-0.145c0.34,0.406,0.803,0.686,1.326,0.8c0.287,0.054,0.492,0.12,0.57,0.183
	c0.033,0.028,0.162,0.075,0.287,0.104c0.244,0.057,0.826,0.316,0.826,0.368c0,0.018,0.064,0.071,0.146,0.119
	c0.477,0.322,0.75,1.488,0.445,2.199c-0.098,0.279-0.111,0.377-0.104,0.712c0.01,0.369,0.004,0.399-0.111,0.578
	c-0.119,0.194-0.197,0.404-0.295,0.61c-0.133,0.263-0.186,0.473-0.131,0.508c0.063,0.038,0.295-0.021,0.295-0.075
	c0-0.061,0.279-0.333,0.311-0.302c-0.012,0.143-0.158,0.253-0.123,0.405c0.027,0.084,0.045,0.087,0.357,0.06
	c0.307-0.026,0.35-0.042,0.6-0.22c0.389-0.275,0.439-0.359,0.457-0.737c0.01-0.336-0.115-0.626-0.158-0.955
	c0-0.176,0.014-0.199,0.182-0.327c0.303-0.23,0.355-0.372,0.234-0.628c-0.176-0.458-0.082-0.976-0.287-1.427
	c-0.123-0.312-0.205-0.644-0.375-0.935c0.428,0.093,0.824,0.304,1.258,0.374c0.158,0,0.369,0.097,0.529,0.241
	c0.373,0.465,0.549,1.043,0.686,1.614c-0.414,0.533-0.764,1.06-0.471,1.728c0.102,0.283,0.176,0.586,0.322,0.849
	c0.119,0.076,0.186,0.028,0.252-0.184c0.117-0.366,0.152-0.44,0.215-0.44c0.047,0,0.057,0.062,0.047,0.316
	c-0.014,0.311-0.012,0.317,0.102,0.372c0.107,0.052,0.125,0.047,0.26-0.07c0.078-0.069,0.168-0.125,0.199-0.125
	c0.131,0,0.432-0.517,0.5-0.86c0.096-0.425-0.111-0.538-0.162-0.961c0.035-0.087,0.258-0.214,0.438-0.248
	S28.946,16.584,28.845,16.29z M6.106,9.988C5.481,9.694,5.274,9.005,5.55,8.481c0.059-0.117,0.121-0.204,0.139-0.193
	c0.016,0.011,0.043,0.125,0.059,0.256c0.049,0.419,0.225,0.77,0.559,1.114C6.397,9.753,6.474,9.84,6.474,9.85
	C6.366,9.924,6.239,9.974,6.106,9.988z M6.702,9.578C6.636,9.576,6.38,9.219,6.411,9.171c0.033-0.054,0.721-0.057,0.863-0.003
	C7.606,9.383,6.897,9.564,6.702,9.578z"/>
<path fill="#E6E7E8" d="M7.653,5.074c0.199-0.062,0.33-0.329,0.428-0.501c0-0.15-0.348-0.317-0.66-0.317
	c-0.223,0-0.637,0.171-0.609,0.252c0.01,0.024,0.098,0.089,0.199,0.145C7.229,4.785,7.397,5.032,7.653,5.074z"/>
</svg>
