<?xml version="1.0" encoding="utf-8"?>
<!-- Generator: Adobe Illustrator 15.0.0, SVG Export Plug-In  -->
<!DOCTYPE svg PUBLIC "-//W3C//DTD SVG 1.1//EN" "http://www.w3.org/Graphics/SVG/1.1/DTD/svg11.dtd" [
	<!ENTITY ns_flows "http://ns.adobe.com/Flows/1.0/">
]>
<svg version="1.1"
	 xmlns="http://www.w3.org/2000/svg" xmlns:xlink="http://www.w3.org/1999/xlink" xmlns:a="http://ns.adobe.com/AdobeSVGViewerExtensions/3.0/"
	 x="0px" y="0px" width="32px" height="22px" viewBox="0 0 32 22" enable-background="new 0 0 32 22" xml:space="preserve">
<defs>
</defs>
<rect fill="#F1F2F2" width="32" height="22"/>
<path fill="#F7941E" d="M24.695,3.402c0.019,0.019,0.038,0.037,0.057,0.055c0.002-0.057,0.034-0.129-0.03-0.166
	c-0.038-0.021-0.085-0.009-0.118,0.016C24.637,3.337,24.665,3.37,24.695,3.402 M25.572,5.183c-0.011-0.15-0.022-0.285-0.107-0.413
	c-0.077-0.115-0.177-0.217-0.298-0.285c-0.125-0.068-0.241-0.078-0.303-0.21c-0.014-0.028-0.041-0.03-0.03-0.067
	c0.009-0.032,0.055-0.026,0.075-0.011c0.001-0.044,0.013-0.179-0.021-0.194c0.026-0.058-0.016-0.186-0.018-0.257
	c-0.028,0.017-0.058,0.034-0.085,0.053c0.025-0.041,0.052-0.082,0.077-0.123c-0.047-0.01-0.073-0.053-0.062-0.099
	c-0.134-0.003-0.292-0.237-0.369-0.332c-0.006,0.082-0.088,0.005-0.108-0.022c-0.029-0.039-0.053-0.095-0.08-0.123
	c-0.047-0.046-0.105-0.084-0.159-0.123c-0.105-0.075-0.217-0.144-0.335-0.198c-0.095-0.043-0.182-0.108-0.276-0.159
	c0.021,0.041,0.037,0.082,0.057,0.123c-0.031-0.025-0.177-0.166-0.213-0.156c-0.078,0.021,0.017,0.105,0.038,0.129
	c-0.032-0.015-0.291-0.121-0.153-0.025c-0.041-0.015-0.132-0.083-0.134,0c-0.077-0.021-0.192-0.029-0.252-0.066
	c-0.043-0.027-0.109-0.095-0.161-0.093c0.01,0.024,0.03,0.052,0.041,0.079c-0.141-0.055-0.282-0.026-0.427-0.021
	c-0.053,0.002-0.106-0.007-0.158-0.003c-0.042,0.003-0.067,0.041-0.104,0.04c-0.335-0.008-0.622,0.074-0.945,0.138
	c-0.631,0.126-1.147,0.477-1.561,0.964c-0.217,0.256-0.4,0.539-0.6,0.808c-0.162,0.22-0.287,0.467-0.495,0.648
	c-0.225,0.195-0.525,0.338-0.796,0.459c-0.13,0.058-0.263,0.13-0.404,0.156c-0.147,0.026-0.297-0.003-0.445,0.012
	c-0.15,0.016-0.334-0.074-0.479-0.118c-0.162-0.049-0.326-0.09-0.49-0.132c-0.312-0.08-0.629-0.139-0.946-0.185
	c-0.351-0.05-0.701-0.102-1.052-0.149c-0.334-0.045-0.671-0.074-0.998-0.159c-0.615-0.16-0.898-0.799-1.383-1.151
	c-0.27-0.196-0.562-0.325-0.895-0.358c-0.079-0.008-0.158-0.01-0.236-0.005c-0.063,0.004-0.118-0.105-0.165-0.153
	c-0.115-0.114-0.24-0.214-0.379-0.297c-0.056-0.033-0.1-0.076-0.165-0.092C9.484,2.989,9.438,3.021,9.37,2.955
	C9.25,2.839,9.129,2.726,9.005,2.614C8.763,2.393,8.528,2.203,8.2,2.132C8.122,2.115,8.042,2.102,7.961,2.1
	C7.892,2.099,7.836,2.072,7.767,2.069C7.694,2.066,7.661,2.12,7.603,2.131C7.51,2.148,7.417,2.166,7.324,2.185
	C7.005,2.25,6.878,2.544,6.865,2.85C6.854,3.098,6.821,3.332,6.827,3.583c0.006,0.268,0.058,0.53,0.129,0.787
	C6.681,4.403,6.653,4.82,6.753,5.01c-0.136,0.047-0.219,0.185-0.23,0.323c-0.006,0.057,0,0.118,0.023,0.17
	c0.025,0.058,0.082,0.093,0.079,0.139C6.621,5.694,6.583,5.76,6.579,5.822C6.574,5.898,6.576,5.976,6.587,6.051
	C6.605,6.186,6.656,6.32,6.724,6.438C6.607,6.456,6.447,6.472,6.428,6.616C6.41,6.744,6.465,6.889,6.455,7.023
	C6.435,7.297,6.607,7.587,6.838,7.728c0.019,0.012,0.083,0.03,0.094,0.047c0.01,0.015,0,0.085,0,0.104
	c0.004,0.071,0.011,0.145,0.024,0.214c0.027,0.132,0.07,0.259,0.135,0.378C7.225,8.721,7.439,8.9,7.682,9.04
	c0.008,0.004,0.017,0.009,0.024,0.014c-0.08,0.096-0.105,0.229-0.12,0.349c-0.021,0.16-0.045,0.316-0.02,0.478
	c0.048,0.313,0.257,0.516,0.521,0.667c-0.026,0.031-0.061,0.056-0.085,0.087c-0.021,0.026-0.075,0.05-0.087,0.076
	c-0.006,0.01,0.022,0.025,0.016,0.044c-0.033,0.104-0.007,0.127,0.063,0.205c-0.065,0.036-0.169,0.176-0.021,0.163
	c-0.016,0.066-0.16,0.057-0.145,0.15s0.13,0.03,0.185,0.008c-0.049,0.065-0.208,0.069-0.237,0.145
	c-0.04,0.105,0.081,0.091,0.14,0.07c0.023,0.062-0.167,0.089-0.194,0.153c-0.015,0.035-0.001,0.064,0.027,0.082
	c0.041,0.024,0.07-0.006,0.111-0.026c-0.033,0.049-0.089,0.104-0.105,0.163c-0.004,0.017,0.002,0.028,0,0.042
	c-0.006,0.032-0.008,0.06-0.021,0.101c0.034-0.029,0.07-0.045,0.098,0c-0.049,0.031-0.178,0.207-0.036,0.17
	c-0.051,0.076-0.038,0.143,0.054,0.155c0.039,0.005,0.075-0.019,0.105-0.005c0.033,0.016,0.048,0.068,0.063,0.096
	c0.05,0.095,0.105,0.18,0.175,0.261c0.035,0.04,0.076,0.076,0.117,0.11c0.058,0.049,0.041,0.051,0.027,0.123
	c-0.016,0.078-0.026,0.206,0.017,0.277c0.021,0.034,0.063,0.052,0.099,0.064c0.052,0.016,0.059,0.02,0.092,0.065
	c0.024,0.036-0.005,0.09,0.028,0.129c0.031,0.034,0.071,0.028,0.109,0.033c0.069,0.008,0.15,0.019,0.222-0.008
	c-0.073,0.059-0.21,0.145-0.204,0.256c0.005,0.093,0.14,0.096,0.218,0.069c0,0.09,0.035,0.13,0.132,0.112
	c0.047-0.008,0.063-0.042,0.102-0.059c0.049-0.021,0.02-0.007,0.075,0c0.103,0.013,0.159,0.036,0.197,0.151
	c0.035,0.104,0.013,0.207,0.018,0.316c0.004,0.073-0.052,0.419,0.094,0.375c0.047-0.014,0.091-0.053,0.138-0.053
	c0.058,0,0.112-0.027,0.163-0.05c-0.081,0.066-0.061,0.356,0.074,0.334c0.017-0.003,0.066-0.046,0.077-0.038
	c0.019,0.014,0.04,0.024,0.063,0.021c0.045-0.005,0.078-0.041,0.124-0.045c-0.01,0.057,0.027,0.081,0.076,0.083
	c0.068,0.003,0.128,0.034,0.168,0.089c0.036,0.049,0.045,0.112,0.081,0.161c0.055,0.074,0.126,0.135,0.201,0.187
	c0.076,0.053,0.154,0.096,0.237,0.134c0.054,0.024,0.017,0.143,0.052,0.201c0.08,0.134,0.236,0.06,0.283-0.049
	c0.095,0.142,0.158,0.259,0.349,0.159c0.052,0.15,0.225,0.229,0.32,0.352c0.052,0.067,0.109,0.118,0.191,0.144
	c0.063,0.021,0.168-0.02,0.205,0.028c0.086,0.112,0.173,0.268,0.334,0.265c0.125-0.002,0.15-0.11,0.152-0.219
	c0.065,0.067,0.104,0.098,0.123,0.188c0.019,0.083,0.045,0.163,0.064,0.245c0.036,0.16,0.055,0.315,0.061,0.479
	c0.011,0.305,0.02,0.602-0.051,0.9c-0.019,0.082-0.002,0.309-0.063,0.366c-0.028,0.026-0.164,0.033-0.205,0.046
	c-0.082,0.025-0.158,0.062-0.234,0.1c-0.07,0.036-0.238,0.171-0.147,0.268c0.072,0.077,0.201-0.014,0.272-0.033
	c0.057-0.016,0.117,0.006,0.177,0.008c0.065,0.001,0.123-0.032,0.157,0.027c0.074,0.126,0.218,0.136,0.351,0.149
	c0.108,0.011,0.231,0.09,0.326,0.15c0.124,0.077,0.302,0.069,0.442,0.077c0.169,0.01,0.336,0.015,0.505,0.017
	c0.075,0.001,0.149-0.001,0.225-0.002c0.074-0.001,0.105,0.051,0.17,0.083c0.054,0.027,0.112,0.041,0.173,0.045
	c0.053,0.003,0.13,0.06,0.182,0.085c0.064,0.031,0.129,0.074,0.176,0.128c0.039,0.046,0.052,0.111,0.095,0.152
	c0.15,0.142,0.189-0.072,0.212-0.182c0.032-0.157-0.118-0.274-0.232-0.365c0.184,0.006,0.376-0.058,0.556-0.022
	c0.112,0.022,0.202,0.071,0.291,0.143c0.025,0.021,0.067,0.04,0.089,0.063c0.026,0.029,0.017,0.076,0.041,0.106
	c0.103,0.128,0.16-0.1,0.154-0.166c-0.015-0.167-0.219-0.297-0.358-0.374c0.184,0.042,0.398,0.088,0.559,0.192
	c0.129,0.083,0.189,0.229,0.279,0.333c0.106,0.124,0.171,0.001,0.183-0.125c0.02-0.193-0.058-0.352-0.211-0.462
	c0.092-0.026,0.031-0.182-0.003-0.233c-0.077-0.113-0.221-0.186-0.354-0.209c0.11-0.043,0.237-0.023,0.334,0.041
	c0.055,0.036,0.061,0.063,0.077,0.12c0.012,0.041,0.04,0.104,0.082,0.122c0.063,0.026,0.146-0.032,0.169-0.088
	c0.035-0.085-0.014-0.191-0.059-0.264c-0.316-0.512-1.12-0.195-1.58-0.159c-0.139,0.011-0.276,0.017-0.417,0.014
	c-0.132-0.002-0.196,0.005-0.196-0.138c0-0.111,0.021-0.224,0.011-0.335c-0.011-0.129-0.052-0.265-0.089-0.389
	c-0.076-0.259-0.128-0.523-0.157-0.792c-0.006-0.058-0.013-0.116-0.015-0.174c-0.001-0.02-0.016-0.089-0.004-0.106
	c0.014-0.019,0.059,0.012,0.069-0.02c0.014-0.045-0.023-0.092-0.043-0.132c-0.031-0.063-0.022-0.122-0.016-0.191
	c0.042,0.053,0.1,0.064,0.134,0.123c0.021,0.037,0.044,0.111,0.089,0.088c-0.073-0.119-0.088-0.207-0.145-0.332
	c0.022,0.025,0.035,0.05,0.064,0.069c-0.042-0.063-0.056-0.133-0.1-0.203c-0.025-0.038-0.07-0.153-0.051-0.194
	c0.079,0.146,0.173,0.285,0.245,0.434c0.029,0.059,0.06,0.093,0.112,0.13c0.031,0.022,0.063,0.055,0.099,0.071
	c-0.021-0.041-0.04-0.067-0.022-0.112c0.021,0.01,0.063,0.013,0.077,0.027c0.017,0.016,0.05,0.077,0.07,0.08
	c0.055,0.009-0.026-0.077-0.033-0.084c-0.074-0.102-0.124-0.263-0.187-0.381c0.024,0.03,0.054,0.056,0.084,0.081
	c0-0.007,0.004-0.01,0.008-0.014c-0.117-0.116-0.175-0.338-0.223-0.489c0.121,0.172,0.253,0.36,0.397,0.503
	c0.049,0.048,0.197,0.1,0.119-0.017c-0.075-0.113-0.143-0.23-0.204-0.351c0.095,0.13,0.188,0.356,0.372,0.334
	c-0.029-0.025-0.047-0.063-0.025-0.098c0.02,0.016,0.201,0.131,0.173,0.074c-0.012-0.024,0.006-0.035-0.011-0.061
	c-0.028-0.047-0.058-0.093-0.095-0.135c0.08,0.066,0.17,0.121,0.245,0.19c0.026,0.025,0.052,0.061,0.079,0.026
	c0.015-0.019-0.052-0.082-0.064-0.098c0.011,0.008,0.021,0.016,0.033,0.024c-0.04-0.066-0.099-0.116-0.14-0.178
	c-0.034-0.054-0.057-0.114-0.101-0.165c-0.04-0.046-0.004-0.083,0.022-0.121c0.019-0.025,0.14,0.016,0.171,0.019
	c0.157,0.013,0.282-0.073,0.426-0.12c0.153-0.05,0.307-0.097,0.458-0.152c0.306-0.112,0.619-0.232,0.913-0.371
	c0.117-0.055,0.211-0.136,0.32-0.199c0.115-0.065,0.18-0.193,0.32-0.205c0.579-0.048,1.202-0.27,1.665-0.625
	c0.467-0.359,0.799-0.858,1.013-1.406c0.235-0.604,0.424-1.231,0.719-1.811c0.144-0.284,0.292-0.548,0.496-0.795
	c0.191-0.231,0.354-0.429,0.46-0.714c0.101-0.27,0.079-0.548,0.101-0.829c0.023-0.312-0.007-0.632,0.033-0.942
	c0.021-0.161,0.044-0.326,0.094-0.48c0.053-0.162,0.127-0.313,0.184-0.472c0.041-0.119,0.046-0.232,0.022-0.355
	c-0.004-0.021,0.092-0.132,0.114-0.147c0.043-0.027,0.1-0.01,0.153-0.015c0.149-0.013,0.245-0.155,0.341-0.25
	c0.036-0.036,0.062-0.087,0.089-0.131c0.029-0.049,0.09-0.077,0.135-0.108c0.092-0.062,0.192-0.116,0.292-0.165
	c0.139-0.068,0.146-0.059,0.275,0.004c0.102,0.049,0.212,0.087,0.322,0.11c0.172,0.036,0.352-0.024,0.431,0.16
	C25.582,5.272,25.574,5.229,25.572,5.183 M13.519,15.51C13.521,15.497,13.521,15.496,13.519,15.51 M13.682,16.145
	c-0.008-0.052-0.015-0.103-0.021-0.155C13.668,16.025,13.698,16.135,13.682,16.145 M14.276,16.081
	c0.021,0.076,0.13,0.166,0.105,0.24c-0.023-0.073-0.092-0.087-0.103-0.156c-0.019-0.113-0.081-0.228-0.08-0.342
	C14.225,15.909,14.25,15.995,14.276,16.081 M14.27,16.212c-0.045,0.011-0.055-0.023-0.058-0.064
	C14.231,16.169,14.252,16.189,14.27,16.212 M14.411,18.033c-0.01,0.145-0.037,0.284-0.073,0.425
	c-0.318-0.508-0.503-1.077-0.47-1.681c0.061,0.03,0.07,0.087,0.102,0.145c0.013-0.013,0.017-0.011,0.008-0.033
	c-0.026-0.061-0.018-0.076-0.021-0.127c-0.009-0.098-0.046-0.195-0.069-0.291c0.073,0.067,0.092,0.163,0.132,0.252
	c0.056,0.125,0.08,0.095,0.043-0.019c0.031,0.02,0.043,0.071,0.069,0.103c-0.004-0.022-0.048-0.093-0.038-0.116
	c0.015-0.035,0.007-0.048-0.006-0.084c-0.036-0.096-0.124-0.24-0.108-0.346c0.081,0.158,0.096,0.355,0.209,0.491
	c-0.063-0.291-0.127-0.596-0.17-0.903c0.014,0.088,0.062,0.166,0.086,0.252c0.02,0.071,0.038,0.118,0.042,0.178
	c0.016,0.203,0.085,0.39,0.131,0.588C14.363,17.242,14.426,17.646,14.411,18.033 M14.433,16.145
	C14.43,16.124,14.432,16.143,14.433,16.145 M14.546,18.563C14.536,18.564,14.548,18.563,14.546,18.563 M16.996,18.948
	c0.01,0.002,0.017,0.002,0.025,0.008c-0.017-0.004-0.035-0.009-0.051-0.014C16.979,18.944,16.988,18.946,16.996,18.948
	 M22.459,2.881c0.019,0.007,0.027,0,0.036,0.019C22.482,2.894,22.471,2.888,22.459,2.881 M24.587,4.402
	c-0.011-0.003-0.022,0.016-0.017-0.01c0.013,0.002,0.024,0.003,0.036,0.005C24.6,4.399,24.593,4.401,24.587,4.402 M24.362,3.097
	C24.356,3.102,24.354,3.103,24.362,3.097"/>
<path fill="#F7941E" d="M24.734,3.285c0.021-0.069-0.059-0.186-0.105-0.087C24.6,3.173,24.616,3.13,24.581,3.104
	c-0.058-0.041-0.103,0.031-0.098,0.086c-0.145-0.11-0.174-0.12-0.213,0.056c-0.012,0.054,0.03,0.074,0.03,0.115
	c0,0.088,0.049,0.167,0.086,0.244c0.063,0.131,0.161,0.293,0.088,0.432c-0.032,0.059-0.071,0.093-0.123,0.131
	c-0.039,0.028-0.115,0.066-0.082,0.12c-0.21,0.023-0.343-0.336-0.469-0.452c-0.103-0.094-0.215-0.114-0.344-0.149
	c-0.007-0.002-0.006-0.025-0.025-0.027c-0.029-0.003-0.06,0.008-0.088,0.016c-0.046,0.012-0.084,0.032-0.134,0.031
	c-0.148-0.003-0.264,0.052-0.405,0.073c-0.089,0.013-0.127,0.039-0.065,0.099c0.049,0.048,0.089,0.078,0.119,0.145
	c0.026,0.061,0.022,0.153,0.052,0.206c0.016,0.028,0.021,0.044,0.059,0.04c0.039-0.004,0.046,0.115,0.032,0.123
	c-0.003,0.001-0.005,0.003-0.008,0.004c-0.014-0.024-0.085-0.054-0.103-0.019c-0.015,0.029,0.021,0.03,0.022,0.044
	c0.002,0.025-0.001,0.075,0.002,0.112c-0.079-0.02-0.157-0.032-0.239-0.04c-0.08-0.007-0.104-0.026-0.175-0.046
	c-0.01-0.003-0.063,0.005-0.066,0.003c-0.028-0.018-0.046-0.084-0.063-0.112c-0.029-0.045-0.063-0.077-0.068-0.134
	c0.036,0.029,0.084,0.056,0.132,0.039c-0.025-0.019-0.068-0.06-0.086-0.086c-0.015-0.022-0.009-0.071-0.04-0.085
	c-0.131-0.06-0.072,0.293-0.087,0.329c-0.013,0.032-0.073,0.048-0.094,0.086c-0.01,0.019-0.011,0.054-0.018,0.076
	c-0.01,0.028-0.018,0.086,0.012,0.093c0.007,0.001,0.029-0.043,0.05-0.047c-0.041,0.059-0.023,0.274-0.003,0.35
	c0.03,0.118,0.09,0.199,0.143,0.303c0.023,0.047,0.082,0.082,0.111,0.128c0.036,0.056,0.06,0.117,0.074,0.183
	c0.026,0.119,0.046,0.27,0.115,0.374c0.037,0.057,0.11,0.002,0.142-0.027c0.076-0.072,0.058-0.164,0.105-0.241
	c0.157-0.255,0.503-0.429,0.765-0.545c0.068-0.03,0.146-0.068,0.221-0.07c-0.302,0.177-0.641,0.298-0.888,0.565
	c-0.116,0.125,0.04,0.126,0.144,0.157c0.053,0.016,0.067,0.012,0.089,0.056c0.028,0.056,0.149-0.027,0.18-0.049
	c-0.013,0.033-0.079,0.139-0.062,0.159c0.039,0.045,0.192-0.203,0.21-0.219c0.087-0.084,0.236-0.063,0.342-0.125
	c0.078-0.045,0.146-0.129,0.188-0.209c0.022-0.042,0.035-0.088,0.047-0.133c0.009-0.03,0.112-0.058,0.138-0.07
	c0.107-0.048-0.021-0.095-0.057-0.13c-0.079-0.08,0.207-0.191,0.265-0.199c0.133-0.017,0.276,0.018,0.411,0.011
	c0.018-0.001,0.033,0.022,0.051,0.009c0.027-0.02,0-0.03,0.004-0.036c-0.006,0.008-0.024-0.011-0.015-0.025
	c0.004-0.006,0.034,0.011,0.041,0.001c0.021-0.031,0.058-0.018-0.011-0.051c-0.072-0.033-0.187,0.008-0.264,0.008
	c-0.14,0-0.263-0.038-0.402-0.03c-0.165,0.009-0.316,0.004-0.482,0.028c-0.002-0.008-0.011-0.042-0.011-0.051
	c0.096-0.038,0.182-0.103,0.278-0.103c0.038,0,0.057-0.017,0.091-0.025c0.048-0.012,0.091-0.014,0.145-0.011
	c0.074,0.005,0.233,0.161,0.31,0.075c0.038-0.042,0.048-0.084,0.029-0.141c0.067,0.046,0.034-0.016,0.043-0.041
	c0.014-0.037-0.004-0.043,0.03-0.073c0.029-0.025,0.093-0.019,0.128-0.012c0.04,0.007,0.139,0.093,0.165,0.027
	c0.01-0.023-0.021-0.056-0.034-0.076c0.131-0.008,0.138-0.028,0.04-0.119c-0.005-0.005-0.062-0.008-0.039-0.023
	c0.02-0.013,0.027-0.024,0.023-0.047c-0.012-0.075-0.097-0.054-0.033-0.14c0.074-0.102,0.09-0.111,0.043-0.229
	c-0.017-0.042,0.059-0.195-0.054-0.179c0.018-0.05,0.07-0.148,0.044-0.202c-0.033-0.068-0.081-0.03-0.118,0.018
	c-0.067,0.089-0.064,0.053-0.055-0.05C24.803,3.333,24.79,3.291,24.734,3.285 M23.432,3.735c0.177,0.021,0.316,0.101,0.424,0.243
	c-0.008,0.028-0.03,0.012-0.045,0.03c-0.018,0.021-0.042-0.003-0.046,0.032c-0.003,0.028,0.001,0.069-0.017,0.093
	c-0.063,0.083-0.151,0.13-0.263,0.12c-0.097-0.008-0.182-0.069-0.239-0.146c-0.05-0.067-0.045-0.168-0.117-0.219
	c0.038-0.021,0.07-0.051,0.107-0.073c0.069-0.039,0.152-0.043,0.232-0.025c0.063,0.014,0.13,0.05,0.179,0.091
	c0.039,0.032,0.056,0.072,0.111,0.074C23.75,3.847,23.524,3.748,23.432,3.735 M23.113,3.994c0.053,0.199,0.242,0.358,0.453,0.327
	c0.092-0.014,0.217-0.047,0.278-0.12c-0.099,0.115-0.231,0.173-0.385,0.167c-0.114-0.004-0.189-0.04-0.265-0.129
	c-0.045-0.055-0.143-0.22-0.093-0.289C23.105,3.964,23.11,3.979,23.113,3.994 M24.606,4.011C24.604,4.016,24.604,4.019,24.606,4.011
	 M24.251,4.827c-0.146,0.009-0.305,0.037-0.456,0.07c-0.069,0.016-0.208,0.072-0.273,0.035c0.073-0.021,0.125-0.062,0.183-0.105
	c-0.007,0.065,0.16,0.003,0.197-0.002C24.018,4.811,24.135,4.815,24.251,4.827 M22.67,5.447c0.002-0.008-0.002-0.021-0.003-0.029
	c0.005,0.001,0.01,0.002,0.015,0.003C22.675,5.429,22.672,5.437,22.67,5.447 M22.731,5.753C22.725,5.764,22.721,5.771,22.731,5.753"
	/>
</svg>
