<?xml version="1.0" encoding="utf-8"?>
<!-- Generator: Adobe Illustrator 15.0.0, SVG Export Plug-In  -->
<!DOCTYPE svg PUBLIC "-//W3C//DTD SVG 1.1//EN" "http://www.w3.org/Graphics/SVG/1.1/DTD/svg11.dtd" [
	<!ENTITY ns_flows "http://ns.adobe.com/Flows/1.0/">
]>
<svg version="1.1"
	 xmlns="http://www.w3.org/2000/svg" xmlns:xlink="http://www.w3.org/1999/xlink" xmlns:a="http://ns.adobe.com/AdobeSVGViewerExtensions/3.0/"
	 x="0px" y="0px" width="32px" height="22px" viewBox="0 0 32 22" enable-background="new 0 0 32 22" xml:space="preserve">
<defs>
</defs>
<rect fill="#6A6E06" width="32" height="22"/>
<polygon fill="#BCBEC0" points="25.053,3.027 26.428,4.277 26.428,6.152 25.74,7.6 24.197,8.256 23.152,8.912 21.766,10.402 
	19.091,8.912 17.303,6.152 16.814,3.777 19.688,3.548 "/>
<polygon fill="#BCBEC0" points="4.152,3.027 2.777,4.277 2.777,6.152 3.465,7.6 5.008,8.256 6.053,8.912 7.439,10.402 10.114,8.912 
	11.902,6.152 12.391,3.777 9.518,3.548 "/>
<path fill="#F1F2F2" d="M12.413,2.907C10.438,2.503,9.436,2.508,4.77,2.313S1.482,4.815,1.692,6.42
	c0.209,1.604,5.291,1.832,6.487,5.281C8.18,11.701,14.388,3.311,12.413,2.907z M7.708,10.05C6.929,7.8,3.616,7.652,3.479,6.606
	C3.344,5.561,2.444,3.801,5.486,3.929c3.041,0.127,3.695,0.124,4.984,0.387C11.758,4.579,7.708,10.05,7.708,10.05z"/>
<ellipse fill="#F1F2F2" cx="14.546" cy="9.433" rx="7.106" ry="7.97"/>
<path fill="#F1F2F2" d="M20.96,11.701c1.196-3.449,6.278-3.677,6.487-5.281c0.21-1.604,1.589-4.302-3.077-4.107
	s-5.669,0.19-7.644,0.594S20.96,11.701,20.96,11.701z M18.669,4.316c1.289-0.263,1.943-0.26,4.984-0.387
	c3.042-0.127,2.143,1.632,2.007,2.678c-0.137,1.046-3.449,1.194-4.229,3.443C21.432,10.05,17.382,4.579,18.669,4.316z"/>
<rect x="10.891" y="7.6" fill="#8D9308" width="3" height="1.312"/>
<rect x="15.2" y="7.6" fill="#8D9308" width="3" height="1.312"/>
<g>
	<line fill="#939598" x1="26.698" y1="21.458" x2="26.899" y2="8.716"/>
	<g>
		
			<line fill="none" stroke="#E6E7E8" stroke-width="0.5948" stroke-miterlimit="10" x1="26.756" y1="17.835" x2="26.843" y2="12.305"/>
		<g>
			<polygon fill="#E6E7E8" points="26.525,17.641 24.532,18.75 24.523,19.285 26.518,18.175 26.509,18.709 24.516,19.819 
				24.507,20.354 26.501,19.244 26.492,19.779 24.498,20.889 24.49,21.423 26.483,20.313 26.475,20.86 26.94,20.868 26.949,20.321 
				28.907,21.493 28.915,20.958 26.958,19.786 26.966,19.251 28.924,20.424 28.933,19.889 26.975,18.717 26.983,18.183 
				28.94,19.354 28.949,18.82 26.991,17.648 			"/>
		</g>
		<g>
			<path fill="#E6E7E8" d="M26.899,8.716c0.6,1.699,1.636,3.811,2.748,5.128l-2.813-1.068l-2.844,0.979
				C25.145,12.474,26.247,10.395,26.899,8.716z"/>
		</g>
	</g>
</g>
</svg>
