<?xml version="1.0" encoding="utf-8"?>
<!-- Generator: Adobe Illustrator 15.0.0, SVG Export Plug-In  -->
<!DOCTYPE svg PUBLIC "-//W3C//DTD SVG 1.1//EN" "http://www.w3.org/Graphics/SVG/1.1/DTD/svg11.dtd" [
	<!ENTITY ns_flows "http://ns.adobe.com/Flows/1.0/">
]>
<svg version="1.1"
	 xmlns="http://www.w3.org/2000/svg" xmlns:xlink="http://www.w3.org/1999/xlink" xmlns:a="http://ns.adobe.com/AdobeSVGViewerExtensions/3.0/"
	 x="0px" y="0px" width="32px" height="22px" viewBox="-0.001 0 32 22" enable-background="new -0.001 0 32 22"
	 xml:space="preserve">
<defs>
</defs>
<rect fill="#474A04" width="32" height="22"/>
<polygon fill="#BCBEC0" points="25.053,3.027 26.428,4.277 26.428,6.152 25.74,7.6 24.197,8.256 23.152,8.912 21.766,10.402 
	19.09,8.912 17.303,6.152 16.814,3.777 19.688,3.548 "/>
<polygon fill="#BCBEC0" points="4.152,3.027 2.777,4.277 2.777,6.152 3.465,7.6 5.008,8.256 6.053,8.912 7.439,10.402 10.113,8.912 
	11.902,6.152 12.391,3.777 9.518,3.548 "/>
<path fill="#F1F2F2" d="M12.412,2.907C10.438,2.503,9.436,2.508,4.77,2.313S1.482,4.815,1.691,6.42s5.291,1.832,6.488,5.281
	C8.18,11.701,14.387,3.311,12.412,2.907z M7.707,10.05C6.928,7.8,3.615,7.652,3.479,6.606C3.344,5.561,2.443,3.801,5.486,3.929
	c3.041,0.127,3.695,0.124,4.984,0.387C11.758,4.579,7.707,10.05,7.707,10.05z"/>
<ellipse fill="#F1F2F2" cx="14.546" cy="9.433" rx="7.106" ry="7.97"/>
<path fill="#F1F2F2" d="M20.959,11.701c1.197-3.449,6.279-3.677,6.488-5.281s1.588-4.302-3.078-4.107s-5.668,0.19-7.643,0.594
	S20.959,11.701,20.959,11.701z M18.668,4.316c1.289-0.263,1.943-0.26,4.984-0.387c3.043-0.127,2.143,1.632,2.008,2.678
	c-0.137,1.046-3.449,1.194-4.229,3.443C21.432,10.05,17.381,4.579,18.668,4.316z"/>
<rect x="10.891" y="7.6" fill="#8D9308" width="3" height="1.312"/>
<rect x="15.199" y="7.6" fill="#8D9308" width="3" height="1.312"/>
<path fill="#E6E7E8" d="M30.813,14.309c-0.17-0.001-0.285-0.049-0.354-0.136c-0.088-1.111-1-2.102-1.787-2.085
	c-0.053,0-0.105,0.007-0.156,0.016c0.096,0.367,0.121,0.686,0.115,0.968c-0.305-0.316-0.719-0.594-0.883-0.741
	c-0.303-0.269-1.027-0.407-1.334-0.208c0.424,0.681,0.535,1.225,0.551,1.619c-0.691,0.053-1.998,0.192-2.252,0.295
	c-0.549,0.226-0.176,0.519-0.73,0.734c-1.227,0.482-2.813,0.358-4.043,0.588c-0.182,0.164,0.111,0.475,0.119,0.667
	c0.01,0.217,0.605,0.344,0.781,0.524c0.178,0.178,0.127,0.429,0.471,0.438c0.031,0,0.08-0.014,0.115-0.016
	c0.262,0.259,0.67,0.495,0.67,0.495s-0.225-0.32-0.291-0.547c0.117-0.027,0.246-0.064,0.371-0.099
	c0.242,0.295,0.76,0.595,0.76,0.595s-0.289-0.406-0.314-0.628c-0.004-0.033,0-0.06,0.006-0.084c0.131-0.036,0.262-0.07,0.383-0.096
	c0.203,0.316,0.814,0.671,0.814,0.671s-0.289-0.407-0.316-0.63c-0.004-0.037,0-0.066,0.006-0.093
	c0.277,0.008,0.67-0.066,1.047-0.093c0.107,0.148,0.314,0.452,0.365,0.656c0.029,0.116,0.035,0.309,0.031,0.495
	c-0.283,0.039-0.662,0.074-1.146,0.1c-0.018-0.104-0.104-0.089-0.23-0.177c-0.213-0.142-0.459-0.568-0.459-0.568
	s0.012,0.442,0.139,0.771c-0.145,0.005-0.281,0.011-0.441,0.016c-0.078,0.015-0.119,0-0.18,0c-0.174-0.18-0.324-0.414-0.324-0.414
	s0.01,0.18,0.049,0.387c-0.205-0.083-0.246-0.219-0.434,0.063c-0.107,0.163,0.23,0.521,0.473,0.588
	c0.672,0.19,0.92-0.035,1.68-0.077c0.488-0.027,1.184,0.06,1.674,0.032c0.693-0.042,0.154,0.159,0.807,0.27
	c-0.023-0.267,0.088-0.397,0.348-0.377c0.008,0.258,0.426,1.086,0.408,0.975c-0.02-0.124,0.031-0.243,0.115-0.311
	c0.158,0.24,0.355,0.4,0.588,0.447l0.693,1.214c0.137-0.76,0.648-0.591,1.191-0.34c0.146,0.225,0.246,0.455,0.381,0.685h0.525
	V14.309z M24.984,15.316c-0.113,0.021-0.301,0.011-0.373-0.048c-0.158-0.13-0.307-0.296-0.131-0.431
	c0.082-0.005,0.156-0.018,0.227-0.033c-0.061,0.132,0,0.32,0.172,0.363c0.174,0.042,0.047-0.065,0.061-0.2
	c0.006-0.057,0.027-0.157,0.016-0.225c0.203-0.051,0.422-0.101,0.748-0.106c0.133-0.001,0.279,0.003,0.455,0.02
	C25.797,15.042,25.408,15.238,24.984,15.316z"/>
</svg>
