<?xml version="1.0" encoding="utf-8"?>
<!-- Generator: Adobe Illustrator 15.0.0, SVG Export Plug-In  -->
<!DOCTYPE svg PUBLIC "-//W3C//DTD SVG 1.1//EN" "http://www.w3.org/Graphics/SVG/1.1/DTD/svg11.dtd" [
	<!ENTITY ns_flows "http://ns.adobe.com/Flows/1.0/">
]>
<svg version="1.1"
	 xmlns="http://www.w3.org/2000/svg" xmlns:xlink="http://www.w3.org/1999/xlink" xmlns:a="http://ns.adobe.com/AdobeSVGViewerExtensions/3.0/"
	 x="0px" y="0px" width="32px" height="22px" viewBox="0 0 32 22" enable-background="new 0 0 32 22" xml:space="preserve">
<defs>
</defs>
<rect fill="#474A04" width="32" height="22"/>
<polygon fill="#BCBEC0" points="25.053,3.027 26.428,4.277 26.428,6.152 25.74,7.6 24.197,8.256 23.152,8.912 21.766,10.402 
	19.091,8.912 17.303,6.152 16.814,3.777 19.688,3.548 "/>
<polygon fill="#BCBEC0" points="4.152,3.027 2.777,4.277 2.777,6.152 3.465,7.6 5.008,8.256 6.053,8.912 7.439,10.402 10.114,8.912 
	11.902,6.152 12.391,3.777 9.518,3.548 "/>
<path fill="#F1F2F2" d="M12.413,2.907C10.438,2.503,9.436,2.508,4.77,2.313S1.482,4.815,1.692,6.42
	c0.209,1.604,5.291,1.832,6.487,5.281C8.18,11.701,14.388,3.311,12.413,2.907z M7.708,10.05C6.929,7.8,3.616,7.652,3.479,6.606
	C3.344,5.561,2.444,3.801,5.486,3.929c3.041,0.127,3.695,0.124,4.984,0.387C11.758,4.579,7.708,10.05,7.708,10.05z"/>
<ellipse fill="#F1F2F2" cx="14.546" cy="9.433" rx="7.106" ry="7.97"/>
<path fill="#F1F2F2" d="M20.96,11.701c1.196-3.449,6.278-3.677,6.487-5.281c0.21-1.604,1.589-4.302-3.077-4.107
	s-5.669,0.19-7.644,0.594S20.96,11.701,20.96,11.701z M18.669,4.316c1.289-0.263,1.943-0.26,4.984-0.387
	c3.042-0.127,2.143,1.632,2.007,2.678c-0.137,1.046-3.449,1.194-4.229,3.443C21.432,10.05,17.382,4.579,18.669,4.316z"/>
<rect x="10.891" y="7.6" fill="#8D9308" width="3" height="1.312"/>
<rect x="15.2" y="7.6" fill="#8D9308" width="3" height="1.312"/>
<path fill="#E6E7E8" d="M30.813,14.309c-0.169-0.001-0.284-0.049-0.353-0.136c-0.088-1.111-1-2.102-1.787-2.085
	c-0.053,0-0.105,0.007-0.157,0.016c0.096,0.367,0.122,0.686,0.115,0.968c-0.304-0.316-0.718-0.594-0.882-0.741
	c-0.304-0.269-1.028-0.407-1.335-0.208c0.424,0.681,0.535,1.225,0.551,1.619c-0.691,0.053-1.997,0.192-2.251,0.295
	c-0.55,0.226-0.176,0.519-0.73,0.734c-1.228,0.482-2.813,0.358-4.043,0.588c-0.182,0.164,0.111,0.475,0.118,0.667
	c0.011,0.217,0.606,0.344,0.782,0.524c0.177,0.178,0.126,0.429,0.47,0.438c0.031,0,0.08-0.014,0.115-0.016
	c0.263,0.259,0.67,0.495,0.67,0.495s-0.224-0.32-0.29-0.547c0.116-0.027,0.245-0.064,0.37-0.099
	c0.242,0.295,0.761,0.595,0.761,0.595s-0.289-0.406-0.314-0.628c-0.005-0.033,0-0.06,0.005-0.084
	c0.131-0.036,0.262-0.07,0.383-0.096c0.204,0.316,0.815,0.671,0.815,0.671s-0.29-0.407-0.317-0.63c-0.004-0.037,0-0.066,0.007-0.093
	c0.276,0.008,0.67-0.066,1.046-0.093c0.107,0.148,0.314,0.452,0.365,0.656c0.03,0.116,0.035,0.309,0.032,0.495
	c-0.284,0.039-0.662,0.074-1.146,0.1c-0.018-0.104-0.104-0.089-0.231-0.177c-0.212-0.142-0.458-0.568-0.458-0.568
	s0.011,0.442,0.138,0.771c-0.144,0.005-0.28,0.011-0.44,0.016c-0.079,0.015-0.12,0-0.181,0c-0.173-0.18-0.323-0.414-0.323-0.414
	s0.01,0.18,0.049,0.387c-0.206-0.083-0.247-0.219-0.435,0.063c-0.107,0.163,0.231,0.521,0.473,0.588
	c0.672,0.19,0.92-0.035,1.68-0.077c0.489-0.027,1.185,0.06,1.675,0.032c0.692-0.042,0.154,0.159,0.807,0.27
	c-0.024-0.267,0.088-0.397,0.348-0.377c0.007,0.258,0.426,1.086,0.407,0.975c-0.02-0.124,0.032-0.243,0.115-0.311
	c0.159,0.24,0.355,0.4,0.589,0.447l0.692,1.214c0.138-0.76,0.648-0.591,1.192-0.34c0.146,0.225,0.245,0.455,0.38,0.685h0.525V14.309
	z M24.984,15.316c-0.113,0.021-0.3,0.011-0.373-0.048c-0.157-0.13-0.307-0.296-0.131-0.431c0.083-0.005,0.157-0.018,0.228-0.033
	c-0.061,0.132-0.001,0.32,0.171,0.363c0.174,0.042,0.047-0.065,0.061-0.2c0.006-0.057,0.027-0.157,0.017-0.225
	c0.202-0.051,0.422-0.101,0.747-0.106c0.133-0.001,0.28,0.003,0.455,0.02C25.798,15.042,25.409,15.238,24.984,15.316z"/>
</svg>
