<?xml version="1.0" encoding="utf-8"?>
<!-- Generator: Adobe Illustrator 15.0.0, SVG Export Plug-In  -->
<!DOCTYPE svg PUBLIC "-//W3C//DTD SVG 1.1//EN" "http://www.w3.org/Graphics/SVG/1.1/DTD/svg11.dtd" [
	<!ENTITY ns_flows "http://ns.adobe.com/Flows/1.0/">
]>
<svg version="1.1"
	 xmlns="http://www.w3.org/2000/svg" xmlns:xlink="http://www.w3.org/1999/xlink" xmlns:a="http://ns.adobe.com/AdobeSVGViewerExtensions/3.0/"
	 x="0px" y="0px" width="32px" height="22px" viewBox="0 0 32 22" enable-background="new 0 0 32 22" xml:space="preserve">
<defs>
</defs>
<rect fill="#BBBE6B" width="32" height="22"/>
<polygon fill="#BCBEC0" points="26.507,5.458 27.882,6.708 27.882,8.583 27.194,10.03 25.651,10.687 24.606,11.342 23.22,12.833 
	20.545,11.342 18.757,8.583 18.269,6.208 21.142,5.979 "/>
<polygon fill="#BCBEC0" points="5.606,5.458 4.231,6.708 4.231,8.583 4.919,10.03 6.462,10.687 7.507,11.342 8.894,12.833 
	11.568,11.342 13.356,8.583 13.845,6.208 10.972,5.979 "/>
<path fill="#F1F2F2" d="M13.867,5.337c-1.975-0.404-2.978-0.399-7.644-0.594S2.937,7.246,3.146,8.851
	c0.209,1.604,5.291,1.832,6.487,5.281C9.634,14.132,15.842,5.741,13.867,5.337z M9.162,12.48c-0.779-2.25-4.092-2.397-4.229-3.443
	C4.798,7.991,3.898,6.232,6.94,6.359c3.041,0.127,3.695,0.124,4.984,0.387C13.212,7.01,9.162,12.48,9.162,12.48z"/>
<ellipse fill="#F1F2F2" cx="16" cy="11.863" rx="7.106" ry="7.97"/>
<path fill="#F1F2F2" d="M22.414,14.132c1.196-3.449,6.278-3.677,6.487-5.281c0.21-1.604,1.589-4.302-3.077-4.107
	s-5.669,0.19-7.644,0.594S22.414,14.132,22.414,14.132z M20.123,6.747c1.289-0.263,1.943-0.26,4.984-0.387
	c3.042-0.127,2.143,1.632,2.007,2.678c-0.137,1.046-3.449,1.194-4.229,3.443C22.886,12.48,18.836,7.01,20.123,6.747z"/>
<rect x="12.345" y="10.03" fill="#8D9308" width="3" height="1.312"/>
<rect x="16.654" y="10.03" fill="#8D9308" width="3" height="1.312"/>
</svg>
