<?xml version="1.0" encoding="utf-8"?>
<!-- Generator: Adobe Illustrator 15.0.0, SVG Export Plug-In  -->
<!DOCTYPE svg PUBLIC "-//W3C//DTD SVG 1.1//EN" "http://www.w3.org/Graphics/SVG/1.1/DTD/svg11.dtd" [
	<!ENTITY ns_flows "http://ns.adobe.com/Flows/1.0/">
]>
<svg version="1.1"
	 xmlns="http://www.w3.org/2000/svg" xmlns:xlink="http://www.w3.org/1999/xlink" xmlns:a="http://ns.adobe.com/AdobeSVGViewerExtensions/3.0/"
	 x="0px" y="0px" width="32px" height="22px" viewBox="0 0 32 22" enable-background="new 0 0 32 22" xml:space="preserve">
<defs>
</defs>
<rect fill="#FFFFFF" width="32" height="22"/>
<path fill="#C49A6C" d="M22.125,12.585c-0.021-0.052-0.046-0.101-0.054-0.166c0.17-0.358,0.138-0.554,0.189-1.105
	c-0.064-0.119-0.161-0.205-0.217-0.332c0.101-0.328-0.052-0.608-0.083-0.801c-0.011-0.071,0.018-0.142,0-0.194
	C21.913,9.841,21.789,9.74,21.744,9.6c-0.017-0.052,0.009-0.118,0-0.166c-0.03-0.159-0.151-0.255-0.163-0.415
	c-0.099-0.011-0.174-0.045-0.191-0.138c0.048-0.011,0.07,0.041,0.083,0C21.348,8.854,21.3,8.667,21.2,8.771
	c-0.065-0.184-0.265-0.228-0.3-0.442c-0.153-0.028-0.22-0.144-0.407-0.139c-0.128-0.2-0.356-0.373-0.625-0.442
	c-0.101-0.025-0.224,0.054-0.3-0.055c-0.276,0.162-0.525-0.129-0.815-0.083c-0.068,0.011-0.146,0.081-0.218,0.083
	c-0.109,0.003-0.211-0.068-0.326-0.083c-0.181-0.023-0.435-0.026-0.626,0c-0.242,0.033-0.399,0.194-0.626,0.166
	c-0.056-0.007-0.105-0.054-0.163-0.056c-0.146-0.002-0.302,0.063-0.462,0.083c-0.273,0.035-0.499,0.004-0.707,0.111
	c0.002-0.051-0.015-0.043-0.055-0.055c-0.232-0.07-0.637,0.005-0.816-0.139c-0.2,0.055-0.406,0.102-0.625,0.139
	c-0.203-0.171-0.754,0.011-0.924-0.194C12.603,7.754,12.39,7.3,11.736,7.36c-0.175-0.155-0.354-0.304-0.571-0.414
	c0.104-0.277-0.109-0.358-0.19-0.526c0.186-0.181-0.019-0.386-0.055-0.58c0.173-0.036,0.247-0.172,0.3-0.332
	c0.13-0.091,0.275-0.242,0.217-0.442c-0.214-0.179-0.52-0.348-0.924-0.249c-0.007-0.325-0.21-0.45-0.408-0.58
	C10.051,4.042,9.772,4.077,9.75,3.85c-0.142-0.074-0.342-0.06-0.489,0C9.153,3.753,8.973,3.677,8.826,3.767
	C8.785,3.735,8.794,3.652,8.717,3.656c-0.1,0-0.104,0.097-0.163,0.139c-0.129-0.1-0.317-0.158-0.436-0.028
	C8.082,3.898,8.176,4.039,8.146,4.071C7.712,3.998,7.65,4.22,7.438,4.32c0.018,0.14-0.055,0.225-0.217,0.249
	c0.103,0.052,0.097,0.214,0.163,0.304C7.337,4.879,7.322,4.92,7.33,4.983C6.912,5.397,6.324,5.638,5.861,6.006
	C5.86,6.272,5.742,6.42,5.753,6.697c0.229,0.061,0.428,0.155,0.489,0.387c0.322,0.16,0.541-0.136,0.843-0.166
	c0.152,0.168-0.183,0.418,0,0.691C7.008,7.823,7.026,7.921,7.058,8.162c-0.027,0-0.032-0.022-0.054-0.028
	c0.067,0.186-0.132,0.35-0.109,0.553C6.907,8.8,7.001,8.85,7.004,8.991c-0.013,0.117-0.117,0.14-0.082,0.304
	C6.971,9.347,7.02,9.399,7.058,9.461c0.023,0.183,0.052,0.515,0.191,0.663c0.06,0.29,0.137,0.561,0.435,0.608
	c0.119,0.115,0.096,0.303,0.19,0.387c-0.17,0.351-0.005,0.871,0.218,1.134c-0.048,0.693,0.279,1.005,0.598,1.326
	c-0.003,0.089-0.1,0.083-0.108,0.166c0.035,0.099,0.089,0.073,0.19,0.055c0.003,0.044-0.004,0.096,0.055,0.083
	c0.106-0.021,0.131-0.125,0.19-0.194c0.042,0.179,0.022,0.419,0.108,0.553c-0.039,0.089-0.109,0.146-0.136,0.248
	c0.05,0.087,0.231,0.158,0.353,0.083c0.049,0.072,0.187,0.051,0.164,0.194c0.111,0.035,0.223,0.069,0.299,0.138
	c-0.065,0.211-0.064,0.477-0.055,0.746c0.002,0.124-0.002,0.088,0,0.139c0.095,0.502-0.258,0.969-0.136,1.547
	c0.023,0.109,0.024,0.155,0.027,0.249c0.003,0.074,0.054,0.137,0.055,0.194c0,0.063-0.064,0.187-0.055,0.304
	c0.004,0.045,0.054,0.089,0.055,0.138c0.001,0.218-0.038,0.387-0.163,0.415c0.133,0.093-0.12,0.37-0.136,0.497
	c-0.007,0.054,0.018,0.088,0.027,0.138c0.037,0.214-0.112,0.113-0.246,0.277c-0.057,0.07-0.034,0.185-0.081,0.276
	c-0.064,0.124-0.234,0.236-0.271,0.359c0.106-0.035,0.07,0.076,0.108,0.111c0.263,0.103,0.464-0.042,0.679-0.083
	c0.126-0.098,0.296-0.172,0.317-0.346c-0.006-0.004-0.013-0.008-0.017-0.014c0.014-0.124-0.014-0.207-0.027-0.304
	c0.129-0.081,0.204-0.217,0.299-0.332c-0.021-0.423,0.007-0.894,0.055-1.133c0.014-0.071-0.014-0.151,0-0.193
	c0.064-0.209,0.283-0.364,0.189-0.581c0.228-0.125,0.315-0.523,0.164-0.802c0.216-0.341,0.362-0.841,0.436-1.244
	c0.034-0.001,0.055,0.011,0.076,0.024v0.086h0.023c0.131,0.406-0.087,0.833,0.009,1.105c-0.056,0.008-0.054,0.074-0.081,0.111
	c0.189,0.167,0.344,0.54,0.407,0.829c0.087,0.395-0.048,0.852,0,1.189c-0.192,0.256-0.424,0.638-0.407,0.939
	c0.314,0.085,0.55-0.128,0.828-0.186c0.047-0.066,0.102-0.125,0.143-0.197c0.035-0.062,0.055-0.119,0.063-0.182
	c-0.001-0.001-0.001-0.001-0.001-0.003c-0.008-0.031-0.016-0.063-0.023-0.095c-0.002,0-0.003,0-0.005,0
	c0.001-0.006,0-0.01,0.001-0.015c-0.002-0.008-0.004-0.015-0.006-0.022s-0.001-0.014,0.002-0.02
	c-0.016-0.065-0.071-0.091-0.051-0.192c0.12,0.021,0.111-0.089,0.19-0.11c0.104-0.411-0.122-0.742-0.137-1.134
	C12.048,17,12.138,16.6,12.117,16.206c-0.026-0.462-0.127-0.927,0-1.438c0.457-0.098,0.921,0.277,1.44,0.276
	c0.137,0,0.274-0.081,0.408-0.083c0.17-0.002,0.35,0.083,0.517,0.083c0.129,0,0.237,0.004,0.326,0
	c0.229-0.012,0.421-0.125,0.599-0.083c0.26,0.061,0.468,0.138,0.681,0.111c0.344-0.045,0.635-0.371,0.951-0.36
	c-0.04,0.043,0.002,0.096,0.058,0.123v0.045c-0.002,0-0.002-0.001-0.003-0.001c0.001,0.007,0.001,0.013,0.003,0.02v0.013h0.002
	c0.046,0.289,0.041,0.436,0.239,0.603c0.004,0.068,0.004,0.134-0.027,0.166c0.032,0.004,0.078-0.004,0.082,0.028
	c0.21,0.543,0.273,1.267,0.163,2.018c-0.073-0.019-0.053,0.057-0.082,0.083c0.082,0.29-0.137,0.495-0.244,0.719
	c-0.019,0.037,0.015,0.099,0,0.138c-0.033,0.095-0.138,0.129-0.19,0.166c-0.069,0.297-0.272,0.46-0.326,0.774
	c0.442-0.03,0.783-0.161,1.147-0.27c0.082-0.088,0.149-0.188,0.18-0.308c0.022-0.088,0.011-0.188,0.045-0.272
	c-0.014-0.001-0.026-0.003-0.04-0.007c0.007-0.085,0.076-0.107,0.109-0.166c0.032-0.683,0.076-1.424,0.326-2.018
	c0.107-0.255,0.284-0.524,0.189-0.83c-0.139-0.107-0.254-0.385-0.217-0.58c0.193,0.208,0.416,0.388,0.626,0.58
	c0.109-0.106,0.18,0.159,0.326,0.083c0.035,0.088,0.173,0.259,0.082,0.304c0.192,0.017,0.27,0.261,0.354,0.359
	c0.026,0.031,0.002,0.071,0.027,0.11c0.06,0.098,0.167,0.189,0.217,0.304c0.031,0.07,0.024,0.17,0.055,0.221
	c0.017,0.027,0.063,0.012,0.081,0.055c0.059,0.141,0.057,0.3,0.137,0.415c-0.103,0.049,0.015,0.081,0,0.194
	c-0.003,0.043-0.069,0.021-0.055,0.083c0.057-0.034,0.103,0.237,0.027,0.249c0.158,0.19,0.145,0.593,0.136,0.913
	c-0.28,0.218-0.328,0.763-0.326,1.05c0.238-0.142,0.538-0.221,0.818-0.32c0.003-0.004,0.006-0.007,0.012-0.011
	c0.186-0.082,0.167-0.31,0.164-0.486c-0.033-0.108-0.078-0.122-0.15-0.234c0.278-0.246,0.121-0.74,0.054-1.022
	c-0.033-0.136-0.01-0.286-0.027-0.442c-0.042-0.379-0.088-0.79,0-1.161c0.036-0.009,0.052-0.039,0.109-0.028
	c-0.013-0.1-0.07-0.134-0.027-0.221c0.069-0.003,0.045-0.139,0-0.194c-0.005,0.032-0.044,0.03-0.082,0.028
	c-0.061-0.188-0.272-0.242-0.381-0.415c-0.146-0.233-0.141-0.541-0.19-0.829c0.021-0.006,0.031-0.023,0.027-0.055
	c0.102,0.03,0.077-0.069,0.163-0.055c0.06-0.149,0.186-0.406,0.055-0.581c0.21-0.008,0.188-0.251,0.3-0.359
	c0.043,0.042,0.2,0.042,0.244,0c0.116,0.168,0.376,0.18,0.544,0.083c0.144-0.083,0.13-0.353,0.3-0.332
	C22.207,13.172,22.071,12.868,22.125,12.585z"/>
<path fill="none" stroke="#754C29" stroke-width="2" stroke-miterlimit="10" d="M7.036,18.362c9-9.017,6.973-6.972,12.702-12.702
	s11.643,0.257,5.95,5.95"/>
</svg>
