<?xml version="1.0" encoding="utf-8"?>
<!-- Generator: Adobe Illustrator 15.0.0, SVG Export Plug-In  -->
<!DOCTYPE svg PUBLIC "-//W3C//DTD SVG 1.1//EN" "http://www.w3.org/Graphics/SVG/1.1/DTD/svg11.dtd" [
	<!ENTITY ns_flows "http://ns.adobe.com/Flows/1.0/">
]>
<svg version="1.1"
	 xmlns="http://www.w3.org/2000/svg" xmlns:xlink="http://www.w3.org/1999/xlink" xmlns:a="http://ns.adobe.com/AdobeSVGViewerExtensions/3.0/"
	 x="0px" y="0px" width="32px" height="22px" viewBox="0 0 32 22" enable-background="new 0 0 32 22" xml:space="preserve">
<defs>
</defs>
<rect fill="#6D6E71" width="32" height="22"/>
<path fill="#58595B" d="M8.464,2.016c1.537,1.933,6.038,1.922,7.509,0c1.29,1.834,6.271,1.834,7.511,0
	c1.537,1.883-0.519,14.276-7.511,16.41C9.134,16.59,7.026,4.247,8.464,2.016z"/>
<path fill="#FFFFFF" d="M7.366,6.005c-0.543,0-1.24,0.388-1.551,0.854C5.66,7.169,5.428,7.402,5.194,7.402
	C4.496,7.557,3.721,8.72,3.876,9.341c0.154,0.776,0.775,1.086,2.172,1.241c2.172,0.311,5.896,1.785,9.62,3.801
	c3.723,2.095,5.119,2.793,5.43,2.793c0.232,0,1.086,0.621,1.861,1.319c0.389,0.388,1.009,0.854,1.319,1.086
	c1.163,0.698,1.939,0.543,2.715-0.698c0.155-0.232,0.311-0.388,0.466-0.31c0.311,0.078,1.009-0.233,1.241-0.621
	c0.155-0.388,0.155-1.086-0.155-1.319c-0.466-0.466-0.853-0.543-2.948-0.698c-2.249-0.078-3.336-0.388-4.731-1.164
	c-0.389-0.233-1.086-0.543-1.475-0.776c-0.388-0.232-1.474-0.854-2.327-1.319c-1.861-1.086-4.499-2.56-5.663-3.103
	c-1.086-0.621-2.017-1.396-2.637-2.327C8.22,6.393,7.832,6.005,7.366,6.005z M6.785,8.866c0.019-0.009,0,0.049-0.039,0.165
	c-0.078,0.31,0,0.31,0.775,0.543c0.776,0.233,1.784,0.698,1.784,0.854c0,0.078-0.154,0-0.542-0.155
	C8.53,10.194,7.91,9.962,7.444,9.884C6.901,9.729,6.514,9.574,6.436,9.497c-0.077-0.078,0-0.233,0.155-0.388
	C6.707,8.953,6.766,8.875,6.785,8.866z M22.339,16.789c0.078,0,0.775,0.465,1.707,1.241c0.775,0.698,0.931,0.698,1.318,0.621
	c0.543-0.155,0.775,0,0.311,0.232c-0.466,0.233-0.62,0.233-1.784-0.698c-0.543-0.543-1.164-1.008-1.396-1.086
	C22.261,17.021,22.106,16.789,22.339,16.789z M26.865,17.021c0.036,0,0.079,0,0.128,0c0.155,0,0.311,0.078,0.311,0.155
	c0,0.232-0.232,0.232-0.465,0.078C26.635,17.05,26.608,17.024,26.865,17.021z"/>
<path fill="#FFFFFF" d="M13.883,13.686l-1.241,0.621c-2.249,1.008-3.181,1.164-6.516,1.008c-0.854-0.078-1.164,0-1.63,0.233
	c-0.543,0.31-0.698,0.62-0.62,1.241c0.154,0.465,0.388,0.698,1.086,0.931c0.388,0.155,0.543,0.311,0.62,0.621
	c0.078,0.233,0.311,0.621,0.544,0.776c0.853,0.698,2.017,0.31,3.956-1.164c0.543-0.388,1.396-0.854,1.861-1.009
	c0.698-0.31,2.095-0.931,3.879-1.707l0.388-0.155l-0.62-0.388c-0.388-0.233-0.931-0.543-1.164-0.698L13.883,13.686z M5.919,16.117
	c0.062-0.002,0.109,0.012,0.129,0.051c0.078,0,0,0.156-0.077,0.233c-0.233,0.155-0.389,0.155-0.466,0
	C5.446,16.284,5.737,16.124,5.919,16.117z M6.681,17.13c0.034-0.015,0.129,0.128,0.298,0.434c0.311,0.62,0.388,0.698,1.009,0.465
	c0.311-0.078,0.311-0.078,0.078,0.232c-0.155,0.155-0.389,0.233-0.699,0.233c-0.388,0-0.465,0-0.543-0.543
	C6.692,17.429,6.637,17.149,6.681,17.13z"/>
<path fill="#FFFFFF" d="M26.191,6.466c-0.157-0.001-0.308,0.024-0.439,0.083c-0.155,0.078-0.465,0.465-0.775,0.854
	c-0.854,1.241-1.784,1.939-3.724,2.87c-2.715,1.241-4.189,1.939-4.111,2.017c0,0.078,0.543,0.388,1.086,0.698l1.086,0.621
	l1.396-0.543c2.095-0.854,4.81-1.629,6.361-1.784c1.706-0.233,1.784-0.233,2.172-0.621c0.311-0.388,0.388-1.086,0-1.629
	c-0.077-0.233-0.466-0.621-0.854-0.853c-0.465-0.233-0.697-0.543-0.697-0.699C27.692,6.975,26.873,6.471,26.191,6.466z
	 M26.761,9.341l0.078,0.388c0.154,0.388-0.155,0.698-0.621,0.698c-0.155,0-0.698,0.155-1.241,0.31
	c-0.466,0.078-0.854,0.155-0.854,0.155c0-0.155,0.311-0.311,1.474-0.543c0.932-0.233,1.009-0.233,1.087-0.621L26.761,9.341z"/>
</svg>
