<?xml version="1.0" encoding="utf-8"?>
<!-- Generator: Adobe Illustrator 15.0.0, SVG Export Plug-In  -->
<!DOCTYPE svg PUBLIC "-//W3C//DTD SVG 1.1//EN" "http://www.w3.org/Graphics/SVG/1.1/DTD/svg11.dtd" [
	<!ENTITY ns_flows "http://ns.adobe.com/Flows/1.0/">
]>
<svg version="1.1"
	 xmlns="http://www.w3.org/2000/svg" xmlns:xlink="http://www.w3.org/1999/xlink" xmlns:a="http://ns.adobe.com/AdobeSVGViewerExtensions/3.0/"
	 x="0px" y="0px" width="32px" height="22px" viewBox="0 0 32 22" enable-background="new 0 0 32 22" xml:space="preserve">
<defs>
</defs>
<rect fill="#8A8B8D" width="32" height="22"/>
<path fill="#FFFFFF" d="M7.366,4.005c-0.543,0-1.24,0.388-1.551,0.854C5.66,5.169,5.428,5.402,5.194,5.402
	C4.496,5.557,3.721,6.72,3.876,7.341C4.03,8.117,4.651,8.427,6.048,8.582c2.172,0.311,5.896,1.785,9.62,3.801
	c3.723,2.095,5.119,2.793,5.43,2.793c0.232,0,1.086,0.621,1.861,1.319c0.389,0.388,1.009,0.854,1.319,1.086
	c1.163,0.698,1.939,0.543,2.715-0.698c0.155-0.232,0.311-0.388,0.466-0.31c0.311,0.078,1.009-0.233,1.241-0.621
	c0.155-0.388,0.155-1.086-0.155-1.319c-0.466-0.466-0.853-0.543-2.948-0.698c-2.249-0.078-3.336-0.388-4.731-1.164
	c-0.389-0.233-1.086-0.543-1.475-0.776c-0.388-0.232-1.474-0.854-2.327-1.319c-1.861-1.086-4.499-2.56-5.663-3.103
	c-1.086-0.621-2.017-1.396-2.637-2.327C8.22,4.393,7.832,4.005,7.366,4.005z M6.785,6.866c0.019-0.009,0,0.049-0.039,0.165
	c-0.078,0.31,0,0.31,0.775,0.543c0.776,0.233,1.784,0.698,1.784,0.854c0,0.078-0.154,0-0.542-0.155
	C8.53,8.194,7.91,7.962,7.444,7.884C6.901,7.729,6.514,7.574,6.436,7.497c-0.077-0.078,0-0.233,0.155-0.388
	C6.707,6.953,6.766,6.875,6.785,6.866z M22.339,14.789c0.078,0,0.775,0.465,1.707,1.241c0.775,0.698,0.931,0.698,1.318,0.621
	c0.543-0.155,0.775,0,0.311,0.232c-0.466,0.233-0.62,0.233-1.784-0.698c-0.543-0.543-1.164-1.008-1.396-1.086
	C22.261,15.021,22.106,14.789,22.339,14.789z M26.865,15.021c0.036,0,0.079,0,0.128,0c0.155,0,0.311,0.078,0.311,0.155
	c0,0.232-0.232,0.232-0.465,0.078C26.635,15.05,26.608,15.024,26.865,15.021z"/>
<path fill="#FFFFFF" d="M13.883,11.686l-1.241,0.621c-2.249,1.008-3.181,1.164-6.516,1.008c-0.854-0.078-1.164,0-1.63,0.233
	c-0.543,0.31-0.698,0.62-0.62,1.241c0.154,0.465,0.388,0.698,1.086,0.931c0.388,0.155,0.543,0.311,0.62,0.621
	c0.078,0.233,0.311,0.621,0.544,0.776c0.853,0.698,2.017,0.31,3.956-1.164c0.543-0.388,1.396-0.854,1.861-1.009
	c0.698-0.31,2.095-0.931,3.879-1.707l0.388-0.155l-0.62-0.388c-0.388-0.233-0.931-0.543-1.164-0.698L13.883,11.686z M5.919,14.117
	c0.062-0.002,0.109,0.012,0.129,0.051c0.078,0,0,0.156-0.077,0.233c-0.233,0.155-0.389,0.155-0.466,0
	C5.446,14.284,5.737,14.124,5.919,14.117z M6.681,15.13c0.034-0.015,0.129,0.128,0.298,0.434c0.311,0.62,0.388,0.698,1.009,0.465
	c0.311-0.078,0.311-0.078,0.078,0.232c-0.155,0.155-0.389,0.233-0.699,0.233c-0.388,0-0.465,0-0.543-0.543
	C6.692,15.429,6.637,15.149,6.681,15.13z"/>
<path fill="#FFFFFF" d="M26.191,4.466c-0.157-0.001-0.308,0.024-0.439,0.083c-0.155,0.078-0.465,0.465-0.775,0.854
	c-0.854,1.241-1.784,1.939-3.724,2.87c-2.715,1.241-4.189,1.939-4.111,2.017c0,0.078,0.543,0.388,1.086,0.698l1.086,0.621
	l1.396-0.543c2.095-0.854,4.81-1.629,6.361-1.784c1.706-0.233,1.784-0.233,2.172-0.621c0.311-0.388,0.388-1.086,0-1.629
	c-0.077-0.233-0.466-0.621-0.854-0.853c-0.465-0.233-0.697-0.543-0.697-0.699C27.692,4.975,26.873,4.471,26.191,4.466z
	 M26.761,7.341l0.078,0.388c0.154,0.388-0.155,0.698-0.621,0.698c-0.155,0-0.698,0.155-1.241,0.31
	c-0.466,0.078-0.854,0.155-0.854,0.155c0-0.155,0.311-0.311,1.474-0.543c0.932-0.233,1.009-0.233,1.087-0.621L26.761,7.341z"/>
<path fill="#ED1C24" d="M16.726,12.121c0.54,2.383,3.657,7.974,0,7.974C13.417,20.095,16.281,14.503,16.726,12.121z"/>
</svg>
