<?xml version="1.0" encoding="utf-8"?>
<!-- Generator: Adobe Illustrator 15.0.0, SVG Export Plug-In  -->
<!DOCTYPE svg PUBLIC "-//W3C//DTD SVG 1.1//EN" "http://www.w3.org/Graphics/SVG/1.1/DTD/svg11.dtd" [
	<!ENTITY ns_flows "http://ns.adobe.com/Flows/1.0/">
]>
<svg version="1.1"
	 xmlns="http://www.w3.org/2000/svg" xmlns:xlink="http://www.w3.org/1999/xlink" xmlns:a="http://ns.adobe.com/AdobeSVGViewerExtensions/3.0/"
	 x="0px" y="0px" width="32px" height="22px" viewBox="0 0 32 22" enable-background="new 0 0 32 22" xml:space="preserve">
<defs>
</defs>
<rect fill="#6D6E71" width="31.999" height="22"/>
<path fill="#FFFFFF" d="M20.654,4.174c0,0.326-0.263,0.59-0.589,0.59H9.238c-0.326,0-0.591-0.264-0.591-0.59l0,0
	c0-0.326,0.265-0.589,0.591-0.589h10.827C20.392,3.584,20.654,3.848,20.654,4.174L20.654,4.174z"/>
<path fill="#FFFFFF" d="M20.654,15.859c0,0.326-0.263,0.589-0.589,0.589H9.238c-0.326,0-0.591-0.264-0.591-0.589l0,0
	c0-0.326,0.265-0.59,0.591-0.59h10.827C20.392,15.27,20.654,15.534,20.654,15.859L20.654,15.859z"/>
<rect x="10.64" y="4.174" fill="#FFFFFF" width="8.022" height="11.686"/>
<path fill="none" stroke="#D1D3D4" stroke-width="0.6432" stroke-miterlimit="10" d="M10.756,5.681
	c-7.503-0.107-3.431,3.645,10.613,6.861c14.045,3.215,0.179,7.718-11.649,7.718"/>
</svg>
