<?xml version="1.0" encoding="utf-8"?>
<!-- Generator: Adobe Illustrator 15.0.0, SVG Export Plug-In  -->
<!DOCTYPE svg PUBLIC "-//W3C//DTD SVG 1.1//EN" "http://www.w3.org/Graphics/SVG/1.1/DTD/svg11.dtd" [
	<!ENTITY ns_flows "http://ns.adobe.com/Flows/1.0/">
]>
<svg version="1.1"
	 xmlns="http://www.w3.org/2000/svg" xmlns:xlink="http://www.w3.org/1999/xlink" xmlns:a="http://ns.adobe.com/AdobeSVGViewerExtensions/3.0/"
	 x="0px" y="0px" width="32px" height="22px" viewBox="0 0 32 22" enable-background="new 0 0 32 22" xml:space="preserve">
<defs>
</defs>
<rect fill="#DAC4B2" width="32" height="22"/>
<path id="path26_1_" fill="#8F1722" d="M29.563,13.166c0,0,0,0-0.015,0l-0.178-0.334h-0.007l-5.36-9.735H8.781L8.729,3.201
	L3.25,13.166h0.015H3.258c-0.007,0-0.007,0-0.007,0s0,0.007,0.007,0.015L3.25,13.188h0.022c0.341,0.378,5.338,5.642,11.024,0h0.022
	l-0.007-0.015c0.007,0,0.007,0,0.007-0.007h-0.007l0,0l0,0l-0.111-0.215l-0.067-0.119h-0.007L8.974,3.46l0.008-0.015h7.073
	c0,0.044-0.052,0.734-0.934,11.707c-0.06,1.52-0.705,2.016-1.209,2.172h-5.62c-0.475,0-0.853,0.356-0.853,0.793
	s0.378,0.786,0.853,0.786H24.67c0.467,0,0.853-0.349,0.853-0.786s-0.386-0.793-0.853-0.793h-5.761
	c-0.512-0.148-1.164-0.652-1.224-2.172C16.811,4.179,16.759,3.49,16.751,3.445h7.051l-5.167,9.386l0,0l-0.178,0.334h0.007l0,0H18.45
	c0.007,0.007,0.007,0.007,0.007,0.007l-0.007,0.015h0.021c5.716,5.642,10.729,0.378,11.069,0h0.022l-0.007-0.007
	C29.563,13.173,29.563,13.166,29.563,13.166z M13.749,12.832H3.821l4.96-9.023L13.749,12.832z M19.021,12.832l4.975-9.038
	l4.982,9.038H19.021"/>
</svg>
