<?xml version="1.0" encoding="utf-8"?>
<!-- Generator: Adobe Illustrator 15.0.0, SVG Export Plug-In  -->
<!DOCTYPE svg PUBLIC "-//W3C//DTD SVG 1.1//EN" "http://www.w3.org/Graphics/SVG/1.1/DTD/svg11.dtd" [
	<!ENTITY ns_flows "http://ns.adobe.com/Flows/1.0/">
]>
<svg version="1.1"
	 xmlns="http://www.w3.org/2000/svg" xmlns:xlink="http://www.w3.org/1999/xlink" xmlns:a="http://ns.adobe.com/AdobeSVGViewerExtensions/3.0/"
	 x="0px" y="0px" width="32px" height="22px" viewBox="0 0 32 22" enable-background="new 0 0 32 22" xml:space="preserve">
<defs>
</defs>
<rect fill="#F1F2F2" width="32" height="22"/>
<path id="path4848_1_" fill="#414042" d="M19.248,8.97c-0.396,0.754-1.206,1.457-1.184,2.262c-1.07,1.465,1.315,1.355,1.974,2.033
	l-1.315,1.087l-1.131,1.203c-0.157,0.167-0.723,0.047-1.119,0.081c-0.473,0.039-0.634,0.701-0.342,1.03
	c0.111,0.126,0.3,0.127,0.488-0.081c0.154,0.14,0.273,0.256,0.48,0.234c0.426-0.045,0.351-0.305,0.492-0.463
	c0.237-0.235,0.54-0.132,0.842-0.029c0.215-0.203,0.234-0.565,0.421-0.858c0.367-0.578,0.479-0.242,0.604-0.144
	c0.064-0.305,0.436-0.61,0.789-0.916c0.393-0.316,0.719-0.707,1.393-0.716c0.132-0.43,0.108-0.825,0-1.202l-0.528-0.889
	c0.276-0.13-0.035-0.204,0.056-0.485l0.736-1.146L19.248,8.97z"/>
<path id="path4850_1_" fill="#414042" d="M17.453,9.928c-0.281,0.054-0.285,0.155-0.22,0.315c0.568,0.054,0.872,0.189,1.372,0.356
	c0.223,0.108,0.548,0.127,0.673,0.395c0.285,0.175,0.495,0.018,0.736,0l-0.789-1.088L17.453,9.928z"/>
<path id="path4852_1_" fill="#414042" d="M10.072,12.034c0.053,0.563-0.203,1.338,0.158,1.689l1.762,1.718
	c0.235,0.229,0.578,0.267,0.867,0.4c-0.027,0.21,0.195,0.494,0.421,0.63c0.184,0.11,0.355,0.117,0.487,0.035
	c0.038-0.184,0.209-0.064,0.292-0.214c0.051-0.089,0.203-0.401-0.014-0.41c0.158-0.108,0.108-0.198-0.029-0.413
	c-0.164-0.368-0.645-0.019-0.758-0.221c0,0-0.026-0.313-0.172-0.404c-0.183-0.116-0.619,0.024-0.728-0.091
	c-0.319-0.34-0.936-0.818-0.946-1.03l-0.132-2.549L10.072,12.034z"/>
<path id="path4854_1_" fill="#414042" d="M4.728,7.485c0,0,0.233,0.302,0.278,0.481c0.045,0.176,0.008,0.63,0.008,0.63
	S5.984,8.39,5.97,8.333c-0.015-0.058-0.15-0.917-0.188-0.975C5.744,7.301,4.735,7.497,4.728,7.485z"/>
<path id="path4856_1_" fill="#414042" d="M3.622,8.796C3.332,8.713,3.318,8.11,3.318,8.11S3.49,8.377,3.638,8.474
	c0.104,0.068,0.18,0.039,0.175,0.14S3.752,8.833,3.622,8.796L3.622,8.796z"/>
<path id="path4858_1_" fill="#414042" d="M2.612,7.6C2.527,7.819,3.177,8.192,3.177,8.192S2.988,7.929,2.973,7.786
	C2.962,7.684,3.038,7.658,2.926,7.6S2.65,7.502,2.612,7.6z"/>
<path id="path4860_1_" fill="#414042" d="M3.156,7.566C3.07,7.786,3.72,8.159,3.72,8.159S3.533,7.896,3.517,7.752
	C3.505,7.651,3.582,7.624,3.47,7.566C3.356,7.508,3.193,7.468,3.156,7.566z"/>
<path id="path4862_1_" fill="#414042" d="M3.729,7.477C3.645,7.697,4.294,8.07,4.294,8.07S4.106,7.807,4.09,7.663
	C4.078,7.562,4.156,7.535,4.043,7.477C3.931,7.419,3.768,7.379,3.729,7.477z"/>
<path id="path4864_1_" fill="#414042" d="M4.12,8.585C3.852,8.521,3.84,7.869,3.84,7.869s0.159,0.275,0.296,0.367
	C4.23,8.3,4.301,8.262,4.296,8.372S4.239,8.615,4.12,8.585z"/>
<path id="path4866_1_" fill="#414042" d="M6.304,6.108c0.049-0.19,0.087-0.689-0.336-1.37C6.166,4.61,6.634,4.699,6.83,4.873
	c0.196,0.175,0.949,0.635,0.766,1.011C7.419,6.244,6.757,6.31,6.304,6.108z"/>
<path id="path4868_1_" fill="#414042" d="M7.428,4.715c-0.034,0-0.068,0.005-0.102,0.011c0.115,0.445,0.086,0.796,0.021,1.043
	c-0.241,0.018-0.486-0.004-0.779,0C6.332,5.772,5.072,5.892,4.868,5.975C4.514,6.121,4.755,6.31,4.396,6.45
	C3.603,6.761,2.579,6.681,1.784,6.83C1.666,6.935,1.855,7.136,1.86,7.26c0.007,0.141,0.392,0.223,0.505,0.339
	c0.114,0.115,0.082,0.277,0.304,0.283C3.02,7.891,3.718,7.58,4.064,7.603C4.447,7.627,5.252,7.348,5.419,7.77
	C5.385,7.958,6.435,8.301,3.645,8.377C3.2,8.46,3.249,8.129,3.069,8.401C3,8.506,3.219,8.738,3.375,8.781
	C3.809,8.904,3.97,8.758,4.46,8.731C4.776,8.713,5.227,8.77,5.543,8.751c0.447-0.027,0.1,0.103,0.521,0.175
	C6.048,8.753,6.121,8.669,6.289,8.682c0.004,0.167,0.275,0.702,0.263,0.63c-0.013-0.08,0.021-0.157,0.075-0.201
	C6.729,9.266,6.856,9.37,7.007,9.4l0.447,0.785c0.09-0.491,0.42-0.382,0.771-0.22c0.154,0.239,0.222,0.488,0.459,0.731
	c0.033,0.035,0.054-0.373,0.21-0.287c0.271,0.269,0.391,0.974,0.676,0.996c-0.68,0.821-1.58,1.583-1.996,2.404
	c-0.252,0.03-0.448,0.145-0.646,0.401c-0.553,0.717-1.614,1.477-1.88,1.458c-0.351-0.023-0.71-0.093-1.051-0.056
	c-0.301,0.032-1.095,0.611-0.549,0.91c-0.008,0.311,0.197,0.265,0.336,0.207c0.065,0.228,0.425,0.204,0.66,0.14
	c0.227-0.071,0.249-0.3,0.368-0.454c0.262,0.019,0.324,0.315,0.64,0.138c0.594-0.336,1.063-1.209,1.646-1.542
	c0.373-0.212,0.991-0.011,1.395-0.776c0.315-0.602,1.411-0.92,2.379-1.266c-0.002,0.122-0.012,0.263-0.003,0.343
	c0.348-0.132,0.587-0.365,0.698-0.644c0.016,0.032,0.028,0.14,0.023,0.305c0.31,0.026,0.5-0.168,0.592-0.48
	c0.433-0.053,0.681,0.354,0.983,0.209c-0.105-0.153-0.141-0.227-0.136-0.256c0.316,0.155,0.641,0.208,0.925,0.144
	c-0.215-0.082-0.097-0.209-0.103-0.269c2.835-0.096,1.856-1.187,4.5-2.295c0.618-0.26,0.744,0.573,1.329,0.728l1.588,1.423
	c0.665,0.623,2.63,0.858,3.393,1.057c0.561,0.325,1.123,0.367,1.685,0.261c0.733,0.582,1.306,1.288,1.686,2.144
	c0.216,0.488,0.662,0.695,0.994,1.042c0.167,0.124,0.308,0.056,0.426-0.146c0.227-0.015,0.368-0.124,0.396-0.354
	c-0.087-0.314,0.265-0.543-0.056-0.712c-0.413-0.218-1.138-0.145-1.027-0.663c-0.907-0.495-1.163-2.469-1.605-2.267
	c-0.547,0.249-0.922,0.005-1.395-0.246l0.53-0.486l-0.552-0.201l0.313-0.175l-0.735-0.171l0.367-0.114l-1.026-0.286
	c-1.6-0.981-0.882-1.914-2.266-2.834c0.498-0.463,0.536,0.569,1.491,0.46l2.087,0.27l-1.335-0.779
	c0.56-0.268,2.149,1.039,3.007,0.289L26.307,7.77c0.352-0.401,2.188,0.752,3.011,0.156l-1.851-0.516
	c0.495-0.353,1.465,0.53,2.391-0.121c-0.694-0.18-1.03-0.215-1.439-0.325c0.111-0.335,1.314,0.33,1.836-0.367
	c-0.617,0.004-2.238-0.222-2.467-0.085c-0.283,0.103-1.287,0.1-1.331,0.037c-1.215,0.036-1.573,0.408-2.128,0.355
	c-0.421-0.04-0.797-0.256-1.236-0.125c-1.667,0.496-1.396-0.001-2.561,0.251c-0.476-0.11-0.968-0.144-1.49-0.035
	c-1.719,0.354-2.338,0.584-4.338,0.727c-0.121,0.009-0.207-0.141-0.099-0.274c-1.749,0.204-2.007-0.43-3.003-0.547l-0.566-0.067
	c0.093-0.057,0.183-0.178,0.236-0.218c-0.197-0.071-0.444-0.007-0.72,0.043c-0.099-0.104-0.049-0.198-0.032-0.294
	c-0.379,0.093-0.629-0.076-0.951,0.148C9.535,6.401,9.508,6.29,9.695,6.195c-0.211-0.004-0.749,0.262-0.727-0.06
	C8.766,6.176,8.646,6.144,8.583,6.063C8.525,5.345,7.937,4.705,7.428,4.715L7.428,4.715z"/>
<path id="path4870_1_" fill="#414042" d="M3.506,16.142c0.053,0.079,0.12,0.217-0.049,0.314c-0.114-0.08-0.555-0.002-0.761,0.125
	C2.853,16.3,3.182,16.164,3.506,16.142z"/>
<path id="path4872_1_" fill="#414042" d="M4.096,16.562c0.135,0.091,0.118,0.202,0.077,0.33c-0.148-0.01-0.481,0.207-0.628,0.431
	C3.574,16.988,3.786,16.754,4.096,16.562z"/>
<path id="path4874_1_" fill="#414042" d="M3.717,16.375c0.157,0.042,0.145,0.197,0.079,0.323c-0.147-0.029-0.628,0.27-0.762,0.453
	C3.047,16.85,3.419,16.51,3.717,16.375L3.717,16.375z"/>
<path id="path4876_1_" fill="#414042" d="M5.45,16.457c-0.102-0.05-0.212-0.089-0.28,0.042c0.07,0.103-0.009,0.357-0.126,0.533
	C5.301,16.905,5.425,16.739,5.45,16.457z"/>
<path id="path4878_1_" fill="#414042" d="M9.557,11.415c0.369-0.245,0.486-0.667,0.67-1.013"/>
<path id="path4880_1_" fill="#414042" d="M11.581,12.683l0.33-0.409l0.063,0.162l0.37-0.543l0.104,0.188
	c0.353-0.193,0.481-0.589,0.716-0.891"/>
<path id="path4882_1_" fill="#414042" d="M13.518,8.398c0.671,0.632,0.375,1.201,0.241,1.781"/>
<path id="path4884_1_" fill="#414042" d="M8.578,7.427c0.113-0.048,0.438-0.076,0.577-0.114c-0.123-0.185-0.327-0.31-0.582-0.392
	c-0.193-0.059-0.417-0.095,0.1-0.179c-0.027-0.401-0.515-0.49-1.144-0.387"/>
<path id="path4886_1_" fill="#414042" d="M7.938,9.027C7.936,9.138,8.036,9.415,8.052,9.543c-0.238-0.026-0.45-0.143-0.637-0.318
	C7.277,9.091,7.15,8.923,7.271,9.378C6.848,9.517,6.56,9.157,6.414,8.602"/>
<path id="path4888_1_" fill="#414042" d="M9.755,8.681C9.751,8.792,9.853,9.069,9.867,9.197C9.629,9.17,9.417,9.054,9.23,8.879
	C9.093,8.746,8.966,8.578,9.087,9.033C8.662,9.171,8.376,8.81,8.23,8.256"/>
<path id="path4890_1_" fill="#414042" d="M10.053,9.972c-0.003,0.111,0.099,0.388,0.114,0.516c-0.238-0.026-0.45-0.143-0.636-0.317
	c-0.139-0.134-0.266-0.302-0.145,0.153c-0.425,0.139-0.712-0.223-0.857-0.776"/>
<path id="path4892_1_" fill="#414042" d="M5.508,6.363c-0.21,0.003-0.352,0.035-0.482,0.068C5.032,6.475,5.019,6.54,5.015,6.577
	C5.006,6.664,5.088,6.733,4.976,6.706c-0.111-0.028-0.15-0.149-0.11-0.234c-0.046,0.01-0.094,0.018-0.147,0.021
	C4.604,6.58,4.701,6.687,4.803,6.771C4.85,6.809,4.971,6.816,5.044,6.802c0.274-0.051,0.525-0.178,0.758-0.427
	C5.689,6.365,5.594,6.362,5.508,6.363z"/>
<path id="path4894_1_" fill="#414042" fill-opacity="0.6337" d="M7.412,4.74c0,0,0.37,0.442,0.396,0.64
	c0.029,0.21-0.151,0.696-0.151,0.696"/>
<path id="path4896_1_" fill="#414042" d="M16.163,16.029c0.049,0.161,0.069,0.271-0.066,0.305c-0.087-0.08-0.417-0.001-0.571,0.125
	C15.643,16.177,15.92,16.05,16.163,16.029z"/>
<path id="path4898_1_" fill="#414042" d="M16.904,16.431c0.188,0.036,0.165,0.169,0.132,0.27c-0.121-0.008-0.474,0.229-0.594,0.403
	C16.466,16.841,16.652,16.583,16.904,16.431z"/>
<path id="path4900_1_" fill="#414042" d="M16.385,16.317c0.141,0.042,0.132,0.19,0.008,0.328c-0.104-0.046-0.504,0.142-0.632,0.307
	C15.819,16.656,16.146,16.415,16.385,16.317L16.385,16.317z"/>
<path id="path4902_1_" fill="#414042" d="M18.365,16.055c-0.032-0.154-0.252-0.127-0.253,0.15c0.078,0.097,0.02,0.357-0.084,0.542
	C18.274,16.6,18.362,16.338,18.365,16.055L18.365,16.055z"/>
<path id="path4904_1_" fill="#414042" d="M13.464,16.342c-0.008-0.095,0.173-0.144,0.284-0.044
	c-0.031,0.102,0.085,0.404,0.226,0.522C13.733,16.776,13.556,16.571,13.464,16.342L13.464,16.342z"/>
<path id="path4906_1_" fill="#414042" d="M13.679,15.678c0.043-0.157,0.154-0.177,0.289-0.177c0.037,0.145,0.302,0.242,0.562,0.312
	C14.201,15.891,13.958,15.911,13.679,15.678L13.679,15.678z"/>
<path id="path4908_1_" fill="#414042" d="M13.62,16.097c-0.01-0.163,0.142-0.2,0.282-0.178c0.019,0.149,0.308,0.42,0.524,0.49
	C14.136,16.492,13.84,16.336,13.62,16.097L13.62,16.097z"/>
<path id="path4910_1_" fill="#414042" d="M12.975,14.873c-0.017,0.112-0.018,0.23,0.127,0.253c0.075-0.099,0.343-0.104,0.547-0.047
	C13.446,14.875,13.25,14.808,12.975,14.873L12.975,14.873z"/>
<path id="path4912_1_" fill="#414042" d="M29.182,16.486c-0.007-0.095,0.174-0.144,0.283-0.045c-0.03,0.102,0.087,0.405,0.227,0.523
	C29.451,16.918,29.274,16.713,29.182,16.486L29.182,16.486z"/>
<path id="path4914_1_" fill="#414042" d="M29.396,15.821c0.043-0.156,0.154-0.176,0.29-0.176c0.037,0.144,0.302,0.242,0.561,0.311
	C29.92,16.034,29.677,16.053,29.396,15.821z"/>
<path id="path4916_1_" fill="#414042" d="M29.339,16.24c-0.01-0.163,0.142-0.2,0.281-0.177c0.019,0.148,0.308,0.419,0.524,0.489
	C29.854,16.634,29.559,16.479,29.339,16.24L29.339,16.24z"/>
<path id="path4918_1_" fill="#414042" d="M28.644,14.911c-0.017,0.111-0.018,0.229,0.128,0.253c0.075-0.1,0.342-0.104,0.546-0.048
	C29.115,14.912,28.919,14.845,28.644,14.911z"/>
<path id="path4920_1_" fill="#414042" d="M19.248,8.97c-0.396,0.754-1.206,1.457-1.184,2.262c-1.07,1.465,1.315,1.355,1.974,2.033
	l-1.315,1.087l-1.131,1.203c-0.157,0.167-0.723,0.047-1.119,0.081c-0.473,0.039-0.634,0.701-0.342,1.03
	c0.111,0.126,0.3,0.127,0.488-0.081c0.154,0.14,0.273,0.256,0.48,0.234c0.426-0.045,0.351-0.305,0.492-0.463
	c0.237-0.235,0.54-0.132,0.842-0.029c0.215-0.203,0.234-0.565,0.421-0.858c0.367-0.578,0.479-0.242,0.604-0.144
	c0.064-0.305,0.436-0.61,0.789-0.916c0.393-0.316,0.719-0.707,1.393-0.716c0.132-0.43,0.108-0.825,0-1.202l-0.528-0.889
	c0.276-0.13-0.035-0.204,0.056-0.485l0.736-1.146L19.248,8.97z"/>
<path id="path4922_1_" fill="#414042" d="M17.453,9.928c-0.281,0.054-0.285,0.155-0.22,0.315c0.568,0.054,0.872,0.189,1.372,0.356
	c0.223,0.108,0.548,0.127,0.673,0.395c0.285,0.175,0.495,0.018,0.736,0l-0.789-1.088L17.453,9.928z"/>
<path id="path4924_1_" fill="#414042" d="M10.072,12.034c0.053,0.563-0.203,1.338,0.158,1.689l1.762,1.718
	c0.235,0.229,0.578,0.267,0.867,0.4c-0.027,0.21,0.195,0.494,0.421,0.63c0.184,0.11,0.355,0.117,0.487,0.035
	c0.038-0.184,0.209-0.064,0.292-0.214c0.051-0.089,0.203-0.401-0.014-0.41c0.158-0.108,0.108-0.198-0.029-0.413
	c-0.164-0.368-0.645-0.019-0.758-0.221c0,0-0.026-0.313-0.172-0.404c-0.183-0.116-0.619,0.024-0.728-0.091
	c-0.319-0.34-0.936-0.818-0.946-1.03l-0.132-2.549L10.072,12.034z"/>
<path id="path4926_1_" fill="#414042" d="M4.728,7.485c0,0,0.233,0.302,0.278,0.481c0.045,0.176,0.008,0.63,0.008,0.63
	S5.984,8.39,5.97,8.333c-0.015-0.058-0.15-0.917-0.188-0.975C5.744,7.301,4.735,7.497,4.728,7.485z"/>
<path id="path4930_1_" fill="#414042" d="M3.622,8.796C3.332,8.713,3.318,8.11,3.318,8.11S3.49,8.377,3.638,8.474
	c0.104,0.068,0.18,0.039,0.175,0.14S3.752,8.833,3.622,8.796L3.622,8.796z"/>
<path id="path4932_1_" fill="#414042" d="M2.612,7.6C2.527,7.819,3.177,8.192,3.177,8.192S2.988,7.929,2.973,7.786
	C2.962,7.684,3.038,7.658,2.926,7.6S2.65,7.502,2.612,7.6z"/>
<path id="path4934_1_" fill="#414042" d="M3.156,7.566C3.07,7.786,3.72,8.159,3.72,8.159S3.533,7.896,3.517,7.752
	C3.505,7.651,3.582,7.624,3.47,7.566C3.356,7.508,3.193,7.468,3.156,7.566z"/>
<path id="path4936_1_" fill="#414042" d="M3.729,7.477C3.645,7.697,4.294,8.07,4.294,8.07S4.106,7.807,4.09,7.663
	C4.078,7.562,4.156,7.535,4.043,7.477C3.931,7.419,3.768,7.379,3.729,7.477z"/>
<path id="path4938_1_" fill="#414042" d="M4.12,8.585C3.852,8.521,3.84,7.869,3.84,7.869s0.159,0.275,0.296,0.367
	C4.23,8.3,4.301,8.262,4.296,8.372S4.239,8.615,4.12,8.585z"/>
<path id="path4940_1_" fill="#414042" d="M6.304,6.108c0.049-0.19,0.087-0.689-0.336-1.37C6.166,4.61,6.634,4.699,6.83,4.873
	c0.196,0.175,0.949,0.635,0.766,1.011C7.419,6.244,6.757,6.31,6.304,6.108z"/>
<path id="path4942_1_" fill="#414042" d="M7.428,4.715c-0.034,0-0.068,0.005-0.102,0.011c0.115,0.445,0.086,0.796,0.021,1.043
	c-0.241,0.018-0.486-0.004-0.779,0C6.332,5.772,5.072,5.892,4.868,5.975C4.514,6.121,4.755,6.31,4.396,6.45
	C3.603,6.761,2.579,6.681,1.784,6.83C1.666,6.935,1.855,7.136,1.86,7.26c0.007,0.141,0.392,0.223,0.505,0.339
	c0.114,0.115,0.082,0.277,0.304,0.283C3.02,7.891,3.718,7.58,4.064,7.603C4.447,7.627,5.252,7.348,5.419,7.77
	C5.385,7.958,6.435,8.301,3.645,8.377C3.2,8.46,3.249,8.129,3.069,8.401C3,8.506,3.219,8.738,3.375,8.781
	C3.809,8.904,3.97,8.758,4.46,8.731C4.776,8.713,5.227,8.77,5.543,8.751c0.447-0.027,0.1,0.103,0.521,0.175
	C6.048,8.753,6.121,8.669,6.289,8.682c0.004,0.167,0.275,0.702,0.263,0.63c-0.013-0.08,0.021-0.157,0.075-0.201
	C6.729,9.266,6.856,9.37,7.007,9.4l0.447,0.785c0.09-0.491,0.42-0.382,0.771-0.22c0.154,0.239,0.222,0.488,0.459,0.731
	c0.033,0.035,0.054-0.373,0.21-0.287c0.271,0.269,0.391,0.974,0.676,0.996c-0.68,0.821-1.58,1.583-1.996,2.404
	c-0.252,0.03-0.448,0.145-0.646,0.401c-0.553,0.717-1.614,1.477-1.88,1.458c-0.351-0.023-0.71-0.093-1.051-0.056
	c-0.301,0.032-1.095,0.611-0.549,0.91c-0.008,0.311,0.197,0.265,0.336,0.207c0.065,0.228,0.425,0.204,0.66,0.14
	c0.227-0.071,0.249-0.3,0.368-0.454c0.262,0.019,0.324,0.315,0.64,0.138c0.594-0.336,1.063-1.209,1.646-1.542
	c0.373-0.212,0.991-0.011,1.395-0.776c0.315-0.602,1.411-0.92,2.379-1.266c-0.002,0.122-0.012,0.263-0.003,0.343
	c0.348-0.132,0.587-0.365,0.698-0.644c0.016,0.032,0.028,0.14,0.023,0.305c0.31,0.026,0.5-0.168,0.592-0.48
	c0.433-0.053,0.681,0.354,0.983,0.209c-0.105-0.153-0.141-0.227-0.136-0.256c0.316,0.155,0.641,0.208,0.925,0.144
	c-0.215-0.082-0.097-0.209-0.103-0.269c2.835-0.096,1.868-0.695,4.512-1.804c0.618-0.259,0.732,0.082,1.317,0.236l1.588,1.423
	c0.665,0.623,2.63,0.858,3.393,1.057c0.561,0.325,1.123,0.367,1.685,0.261c0.733,0.582,1.306,1.288,1.686,2.144
	c0.216,0.488,0.662,0.695,0.994,1.042c0.167,0.124,0.308,0.056,0.426-0.146c0.227-0.015,0.368-0.124,0.396-0.354
	c-0.087-0.314,0.265-0.543-0.056-0.712c-0.413-0.218-1.138-0.145-1.027-0.663c-0.907-0.495-1.163-2.469-1.605-2.267
	c-0.547,0.249-0.922,0.005-1.395-0.246l0.53-0.486l-0.552-0.201l0.313-0.175l-0.735-0.171l0.367-0.114l-1.026-0.286
	c-1.6-0.981-0.882-1.914-2.266-2.834c0.498-0.463,0.536,0.569,1.491,0.46l2.087,0.27l-1.335-0.779
	c0.56-0.268,2.149,1.039,3.007,0.289L26.307,7.77c0.352-0.401,2.188,0.752,3.011,0.156l-1.851-0.516
	c0.495-0.353,1.465,0.53,2.391-0.121c-0.694-0.18-1.03-0.215-1.439-0.325c0.111-0.335,1.314,0.33,1.836-0.367
	c-0.617,0.004-2.238-0.222-2.467-0.085c-0.283,0.103-1.287,0.1-1.331,0.037c-1.215,0.036-1.573,0.408-2.128,0.355
	c-0.421-0.04-0.797-0.256-1.236-0.125c-1.667,0.496-1.396-0.001-2.561,0.251c-0.476-0.11-0.968-0.144-1.49-0.035
	c-1.719,0.354-2.338,0.584-4.338,0.727c-0.121,0.009-0.207-0.141-0.099-0.274c-1.749,0.204-2.007-0.43-3.003-0.547l-0.566-0.067
	c0.093-0.057,0.183-0.178,0.236-0.218c-0.197-0.071-0.444-0.007-0.72,0.043c-0.099-0.104-0.049-0.198-0.032-0.294
	c-0.379,0.093-0.629-0.076-0.951,0.148C9.535,6.401,9.508,6.29,9.695,6.195c-0.211-0.004-0.749,0.262-0.727-0.06
	C8.766,6.176,8.646,6.144,8.583,6.063C8.525,5.345,7.937,4.705,7.428,4.715L7.428,4.715z"/>
<path id="path4944_1_" fill="#414042" d="M3.506,16.142c0.053,0.079,0.12,0.217-0.049,0.314c-0.114-0.08-0.555-0.002-0.761,0.125
	C2.853,16.3,3.182,16.164,3.506,16.142z"/>
<path id="path4946_1_" fill="#414042" d="M4.096,16.562c0.135,0.091,0.118,0.202,0.077,0.33c-0.148-0.01-0.481,0.207-0.628,0.431
	C3.574,16.988,3.786,16.754,4.096,16.562z"/>
<path id="path4948_1_" fill="#414042" d="M3.717,16.375c0.157,0.042,0.145,0.197,0.079,0.323c-0.147-0.029-0.628,0.27-0.762,0.453
	C3.047,16.85,3.419,16.51,3.717,16.375L3.717,16.375z"/>
<path id="path4950_1_" fill="#414042" d="M5.45,16.457c-0.102-0.05-0.212-0.089-0.28,0.042c0.07,0.103-0.009,0.357-0.126,0.533
	C5.301,16.905,5.425,16.739,5.45,16.457z"/>
<path id="path4952_1_" fill="#414042" d="M9.557,11.415c0.369-0.245,0.486-0.667,0.67-1.013"/>
<path id="path4954_1_" fill="#414042" d="M11.581,12.683l0.33-0.409l0.063,0.162l0.37-0.543l0.104,0.188
	c0.353-0.193,0.481-0.589,0.716-0.891"/>
<path id="path4956_1_" fill="#414042" d="M13.518,8.398c0.671,0.632,0.375,1.201,0.241,1.781"/>
<path id="path4958_1_" fill="#414042" d="M8.578,7.427c0.113-0.048,0.438-0.076,0.577-0.114c-0.123-0.185-0.327-0.31-0.582-0.392
	c-0.193-0.059-0.417-0.095,0.1-0.179c-0.027-0.401-0.515-0.49-1.144-0.387"/>
<path id="path4960_1_" fill="#414042" d="M7.938,9.027C7.936,9.138,8.036,9.415,8.052,9.543c-0.238-0.026-0.45-0.143-0.637-0.318
	C7.277,9.091,7.15,8.923,7.271,9.378C6.848,9.517,6.56,9.157,6.414,8.602"/>
<path id="path4962_1_" fill="#414042" d="M9.755,8.681C9.751,8.792,9.853,9.069,9.867,9.197C9.629,9.17,9.417,9.054,9.23,8.879
	C9.093,8.746,8.966,8.578,9.087,9.033C8.662,9.171,8.376,8.81,8.23,8.256"/>
<path id="path4964_1_" fill="#414042" d="M10.053,9.972c-0.003,0.111,0.099,0.388,0.114,0.516c-0.238-0.026-0.45-0.143-0.636-0.317
	c-0.139-0.134-0.266-0.302-0.145,0.153c-0.425,0.139-0.712-0.223-0.857-0.776"/>
<path id="path4966_1_" fill="#414042" d="M5.508,6.363c-0.21,0.003-0.352,0.035-0.482,0.068C5.032,6.475,5.019,6.54,5.015,6.577
	C5.006,6.664,5.088,6.733,4.976,6.706c-0.111-0.028-0.15-0.149-0.11-0.234c-0.046,0.01-0.094,0.018-0.147,0.021
	C4.604,6.58,4.701,6.687,4.803,6.771C4.85,6.809,4.971,6.816,5.044,6.802c0.274-0.051,0.525-0.178,0.758-0.427
	C5.689,6.365,5.594,6.362,5.508,6.363z"/>
<path id="path4968_1_" fill="#414042" fill-opacity="0.6337" d="M7.412,4.74c0,0,0.37,0.442,0.396,0.64
	c0.029,0.21-0.151,0.696-0.151,0.696"/>
<path id="path4970_1_" fill="#414042" d="M16.163,16.029c0.049,0.161,0.069,0.271-0.066,0.305c-0.087-0.08-0.417-0.001-0.571,0.125
	C15.643,16.177,15.92,16.05,16.163,16.029z"/>
<path id="path4972_1_" fill="#414042" d="M16.904,16.431c0.188,0.036,0.165,0.169,0.132,0.27c-0.121-0.008-0.474,0.229-0.594,0.403
	C16.466,16.841,16.652,16.583,16.904,16.431z"/>
<path id="path4974_1_" fill="#414042" d="M16.385,16.317c0.141,0.042,0.132,0.19,0.008,0.328c-0.104-0.046-0.504,0.142-0.632,0.307
	C15.819,16.656,16.146,16.415,16.385,16.317L16.385,16.317z"/>
<path id="path4976_1_" fill="#414042" d="M18.365,16.055c-0.032-0.154-0.252-0.127-0.253,0.15c0.078,0.097,0.02,0.357-0.084,0.542
	C18.274,16.6,18.362,16.338,18.365,16.055L18.365,16.055z"/>
<path id="path4978_1_" fill="#414042" d="M13.464,16.342c-0.008-0.095,0.173-0.144,0.284-0.044
	c-0.031,0.102,0.085,0.404,0.226,0.522C13.733,16.776,13.556,16.571,13.464,16.342L13.464,16.342z"/>
<path id="path4980_1_" fill="#414042" d="M13.679,15.678c0.043-0.157,0.154-0.177,0.289-0.177c0.037,0.145,0.302,0.242,0.562,0.312
	C14.201,15.891,13.958,15.911,13.679,15.678L13.679,15.678z"/>
<path id="path4982_1_" fill="#414042" d="M13.62,16.097c-0.01-0.163,0.142-0.2,0.282-0.178c0.019,0.149,0.308,0.42,0.524,0.49
	C14.136,16.492,13.84,16.336,13.62,16.097L13.62,16.097z"/>
<path id="path4984_1_" fill="#414042" d="M12.975,14.873c-0.017,0.112-0.018,0.23,0.127,0.253c0.075-0.099,0.343-0.104,0.547-0.047
	C13.446,14.875,13.25,14.808,12.975,14.873L12.975,14.873z"/>
<path id="path4986_1_" fill="#414042" d="M29.182,16.486c-0.007-0.095,0.174-0.144,0.283-0.045c-0.03,0.102,0.087,0.405,0.227,0.523
	C29.451,16.918,29.274,16.713,29.182,16.486L29.182,16.486z"/>
<path id="path4988_1_" fill="#414042" d="M29.396,15.821c0.043-0.156,0.154-0.176,0.29-0.176c0.037,0.144,0.302,0.242,0.561,0.311
	C29.92,16.034,29.677,16.053,29.396,15.821z"/>
<path id="path4990_1_" fill="#414042" d="M29.339,16.24c-0.01-0.163,0.142-0.2,0.281-0.177c0.019,0.148,0.308,0.419,0.524,0.489
	C29.854,16.634,29.559,16.479,29.339,16.24L29.339,16.24z"/>
<path id="path4992_1_" fill="#414042" d="M28.644,14.911c-0.017,0.111-0.018,0.229,0.128,0.253c0.075-0.1,0.342-0.104,0.546-0.048
	C29.115,14.912,28.919,14.845,28.644,14.911z"/>
</svg>
