<?xml version="1.0" encoding="utf-8"?>
<!-- Generator: Adobe Illustrator 15.0.0, SVG Export Plug-In  -->
<!DOCTYPE svg PUBLIC "-//W3C//DTD SVG 1.1//EN" "http://www.w3.org/Graphics/SVG/1.1/DTD/svg11.dtd" [
	<!ENTITY ns_flows "http://ns.adobe.com/Flows/1.0/">
]>
<svg version="1.1"
	 xmlns="http://www.w3.org/2000/svg" xmlns:xlink="http://www.w3.org/1999/xlink" xmlns:a="http://ns.adobe.com/AdobeSVGViewerExtensions/3.0/"
	 x="0px" y="0px" width="32px" height="22px" viewBox="0 0 32 22" enable-background="new 0 0 32 22" xml:space="preserve">
<defs>
</defs>
<rect fill="#BCBEC0" width="32" height="22"/>
<path fill="#414042" d="M29.889,15.831c0.05-0.145,0.092-0.264-0.095-0.362c-0.299-0.158-0.758-0.165-0.948-0.353
	c0.114-0.048,0.311-0.044,0.472,0c-0.169-0.17-0.344-0.223-0.554-0.205c-0.001-0.034-0.006-0.065,0.003-0.106
	c-0.907-0.495-1.163-2.469-1.605-2.267c-0.547,0.249-0.922,0.005-1.395-0.246l0.53-0.486l-0.552-0.201l0.313-0.175l-0.735-0.171
	l0.367-0.114l-1.026-0.286c-1.6-0.981-0.882-1.914-2.266-2.834c0.498-0.463,0.536,0.569,1.491,0.46l2.087,0.27l-1.335-0.779
	c0.56-0.268,2.149,1.039,3.007,0.289L26.307,7.77c0.352-0.401,2.188,0.752,3.011,0.156l-1.851-0.516
	c0.495-0.353,1.465,0.53,2.391-0.121c-0.694-0.18-1.03-0.215-1.439-0.325c0.111-0.335,1.314,0.33,1.836-0.367
	c-0.617,0.004-2.238-0.222-2.467-0.085c-0.283,0.103-1.287,0.1-1.331,0.037c-1.215,0.036-1.573,0.408-2.128,0.355
	c-0.421-0.04-0.797-0.256-1.236-0.125c-1.667,0.496-1.396-0.001-2.561,0.251c-0.476-0.11-0.968-0.144-1.49-0.035
	c-1.719,0.354-2.338,0.584-4.338,0.727c-0.121,0.009-0.207-0.141-0.099-0.274c-1.749,0.204-2.007-0.43-3.003-0.547l-0.566-0.067
	c0.093-0.057,0.183-0.178,0.236-0.218c-0.197-0.071-0.444-0.007-0.72,0.043c-0.099-0.104-0.049-0.198-0.032-0.294
	c-0.379,0.093-0.629-0.076-0.951,0.148C9.535,6.401,9.508,6.29,9.695,6.195c-0.211-0.004-0.749,0.262-0.727-0.06
	C8.766,6.176,8.646,6.144,8.583,6.063C8.525,5.345,7.937,4.705,7.428,4.715c-0.034,0-0.068,0.005-0.102,0.011
	C7.388,4.963,7.404,5.169,7.4,5.352C7.204,5.147,6.937,4.967,6.83,4.873C6.634,4.699,6.166,4.61,5.968,4.738
	c0.273,0.44,0.346,0.792,0.355,1.046c-0.446,0.034-1.29,0.125-1.455,0.191C4.514,6.121,4.755,6.31,4.396,6.45
	C3.603,6.761,2.579,6.681,1.784,6.83C1.666,6.935,1.855,7.136,1.86,7.26c0.007,0.141,0.392,0.223,0.505,0.339
	c0.114,0.115,0.082,0.277,0.304,0.283c0.021,0,0.052-0.009,0.074-0.01c0.17,0.167,0.434,0.32,0.434,0.32S3.032,7.985,2.989,7.838
	c0.075-0.018,0.158-0.042,0.239-0.064C3.385,7.965,3.72,8.159,3.72,8.159S3.533,7.896,3.517,7.752c-0.003-0.021,0-0.039,0.003-0.055
	c0.085-0.023,0.17-0.045,0.248-0.062C3.899,7.841,4.294,8.07,4.294,8.07S4.106,7.807,4.09,7.663c-0.003-0.024,0-0.043,0.004-0.06
	C4.272,7.607,4.526,7.56,4.77,7.542c0.069,0.096,0.203,0.292,0.236,0.424c0.02,0.075,0.022,0.2,0.021,0.319
	C4.843,8.311,4.599,8.333,4.285,8.351C4.274,8.283,4.219,8.292,4.136,8.236C3.999,8.144,3.84,7.869,3.84,7.869
	s0.007,0.286,0.089,0.499c-0.093,0.003-0.181,0.007-0.284,0.01c-0.052,0.01-0.078,0-0.117,0C3.416,8.261,3.318,8.11,3.318,8.11
	s0.007,0.117,0.032,0.25C3.217,8.306,3.19,8.218,3.069,8.401C3,8.506,3.219,8.738,3.375,8.781C3.809,8.904,3.97,8.758,4.46,8.731
	C4.776,8.713,5.227,8.77,5.543,8.751c0.447-0.027,0.1,0.103,0.521,0.175C6.048,8.753,6.121,8.669,6.289,8.682
	c0.004,0.167,0.275,0.702,0.263,0.63c-0.013-0.08,0.021-0.157,0.075-0.201C6.729,9.266,6.856,9.37,7.007,9.4l0.447,0.785
	c0.09-0.491,0.42-0.382,0.771-0.22c0.154,0.239,0.222,0.488,0.459,0.731c0.033,0.035,0.054-0.373,0.21-0.287
	c0.271,0.269,0.391,0.974,0.676,0.996c-0.68,0.821-1.58,1.583-1.996,2.404c-0.252,0.03-0.448,0.145-0.646,0.401
	c-0.553,0.717-1.614,1.477-1.88,1.458c-0.351-0.023-0.71-0.093-1.051-0.056c-0.204,0.022-0.627,0.296-0.712,0.563
	c-0.245,0.059-0.469,0.188-0.59,0.405c0.161-0.1,0.461-0.166,0.641-0.153c0.029,0.033,0.06,0.066,0.112,0.095
	c0,0.008,0.003,0.01,0.003,0.017c-0.217,0.166-0.409,0.396-0.418,0.611c0.09-0.124,0.335-0.294,0.532-0.386
	c0.067,0.018,0.15-0.006,0.219-0.035c0.006,0.021,0.025,0.03,0.036,0.047c-0.153,0.15-0.257,0.324-0.276,0.544
	c0.126-0.192,0.384-0.371,0.55-0.413c0.117,0.006,0.246-0.01,0.351-0.039c0.227-0.071,0.249-0.3,0.368-0.454
	c0.167,0.012,0.257,0.128,0.38,0.171c0.008,0.124-0.058,0.307-0.149,0.444c0.217-0.107,0.321-0.258,0.369-0.466
	c0.016-0.006,0.024-0.002,0.04-0.011c0.594-0.336,1.063-1.209,1.646-1.542c0.373-0.212,0.991-0.011,1.395-0.776
	c0.227-0.432,0.856-0.717,1.552-0.972c0.008,0.082,0.024,0.158,0.049,0.229c0.005,0.012,0.008,0.025,0.013,0.037
	c0.03,0.072,0.067,0.14,0.123,0.194l1.762,1.718c0.235,0.229,0.578,0.267,0.867,0.4c-0.027,0.21,0.195,0.494,0.421,0.63
	c0.108,0.065,0.209,0.084,0.304,0.08c0.098,0.134,0.228,0.239,0.39,0.27c-0.085-0.072-0.157-0.209-0.197-0.331
	c0.034-0.109,0.125-0.093,0.204-0.126c0.143,0.064,0.295,0.088,0.446,0.045c-0.104-0.034-0.224-0.115-0.323-0.205
	c0.057-0.126,0.111-0.315-0.058-0.322c0.012-0.008,0.015-0.016,0.024-0.024c0.142,0.018,0.289-0.004,0.459-0.045
	c-0.152-0.041-0.301-0.093-0.41-0.157c-0.021-0.051-0.053-0.109-0.103-0.187c-0.164-0.368-0.645-0.019-0.758-0.221
	c0,0-0.01-0.089-0.038-0.186c0.117-0.031,0.286-0.023,0.428,0.016c-0.164-0.166-0.335-0.217-0.536-0.205
	c-0.01-0.009-0.015-0.022-0.025-0.029c-0.183-0.116-0.619,0.024-0.728-0.091c-0.319-0.34-0.936-0.818-0.946-1.03l-0.04-0.771
	c0.077-0.089,0.153-0.178,0.195-0.282c0.016,0.032,0.028,0.14,0.023,0.305c0.31,0.026,0.5-0.168,0.592-0.48
	c0.433-0.053,0.681,0.354,0.983,0.209c-0.105-0.153-0.141-0.227-0.136-0.256c0.316,0.155,0.641,0.208,0.925,0.144
	c-0.215-0.082-0.097-0.209-0.103-0.269c2.776-0.094,1.916-0.672,4.36-1.736c-0.044,0.097-0.079,0.196-0.104,0.295
	c-0.002,0.009-0.006,0.018-0.009,0.027c-0.024,0.106-0.039,0.214-0.036,0.324c-1.07,1.465,1.315,1.355,1.974,2.033l-1.315,1.087
	l-1.131,1.203c-0.157,0.167-0.723,0.047-1.119,0.081c-0.242,0.02-0.4,0.204-0.46,0.422c-0.199,0.053-0.394,0.176-0.487,0.4
	c0.115-0.094,0.329-0.162,0.466-0.157c0.005,0.08,0.02,0.158,0.052,0.229c-0.135,0.115-0.25,0.258-0.282,0.421
	c0.077-0.1,0.252-0.202,0.402-0.262c0.113,0.096,0.283,0.086,0.456-0.104c0.019,0.017,0.035,0.027,0.054,0.043
	c-0.127,0.139-0.215,0.305-0.23,0.476c0.081-0.117,0.264-0.257,0.413-0.337c0.071,0.039,0.147,0.063,0.244,0.053
	c0.426-0.045,0.351-0.305,0.492-0.463c0.155-0.154,0.34-0.157,0.532-0.116c0.051,0.112-0.001,0.338-0.096,0.507
	c0.174-0.104,0.266-0.266,0.308-0.451c0.032,0.011,0.064,0.02,0.098,0.031c0.215-0.203,0.234-0.565,0.421-0.858
	c0.367-0.578,0.479-0.242,0.604-0.144c0.064-0.305,0.436-0.61,0.789-0.916c0.393-0.316,0.719-0.707,1.393-0.716
	c0.132-0.43,0.108-0.825,0-1.202l-0.056-0.094c0.834,0.462,2.413,0.664,3.078,0.836c0.561,0.325,1.123,0.367,1.685,0.261
	c0.733,0.582,1.306,1.288,1.686,2.144c0.216,0.488,0.662,0.695,0.994,1.042c0.103,0.076,0.194,0.072,0.277,0.018
	c0.098,0.132,0.227,0.236,0.387,0.267c-0.111-0.094-0.204-0.301-0.224-0.435c0.068-0.006,0.116-0.035,0.168-0.06
	c0.16,0.088,0.335,0.131,0.509,0.082c-0.117-0.038-0.253-0.135-0.358-0.24c0.021-0.043,0.057-0.073,0.063-0.132
	c-0.018-0.063-0.015-0.121-0.006-0.176c0.125,0.006,0.255-0.013,0.403-0.048C30.119,15.922,29.991,15.88,29.889,15.831z
	 M5.044,6.802C4.971,6.816,4.85,6.809,4.803,6.771C4.701,6.687,4.604,6.58,4.718,6.493c0.054-0.004,0.102-0.012,0.147-0.021
	c-0.04,0.085-0.001,0.206,0.11,0.234c0.112,0.027,0.03-0.042,0.039-0.129C5.019,6.54,5.032,6.475,5.025,6.431
	c0.131-0.033,0.272-0.065,0.482-0.068c0.086-0.001,0.182,0.002,0.294,0.013C5.569,6.625,5.318,6.751,5.044,6.802z"/>
</svg>
