<?xml version="1.0" encoding="utf-8"?>
<!-- Generator: Adobe Illustrator 15.0.0, SVG Export Plug-In  -->
<!DOCTYPE svg PUBLIC "-//W3C//DTD SVG 1.1//EN" "http://www.w3.org/Graphics/SVG/1.1/DTD/svg11.dtd" [
	<!ENTITY ns_flows "http://ns.adobe.com/Flows/1.0/">
]>
<svg version="1.1"
	 xmlns="http://www.w3.org/2000/svg" xmlns:xlink="http://www.w3.org/1999/xlink" xmlns:a="http://ns.adobe.com/AdobeSVGViewerExtensions/3.0/"
	 x="0px" y="0px" width="32px" height="22px" viewBox="0 0 32 22" enable-background="new 0 0 32 22" xml:space="preserve">
<defs>
</defs>
<rect fill="#939598" width="32" height="22"/>
<path fill="#F1F2F2" d="M23.989,9.563h-1.955c-0.148-0.572-0.373-1.111-0.666-1.607l1.383-1.382c0.391-0.391,0.391-1.024,0-1.415
	l-0.795-0.795c-0.391-0.391-1.024-0.391-1.415,0l-1.382,1.382c-0.496-0.293-1.035-0.518-1.607-0.666V3.125c0-0.552-0.448-1-1-1
	h-1.125c-0.553,0-1,0.448-1,1V5.08c-0.572,0.147-1.111,0.372-1.607,0.665l-1.383-1.382c-0.391-0.39-1.023-0.39-1.414,0L9.227,5.158
	c-0.391,0.391-0.391,1.024,0,1.415l1.382,1.382C10.315,8.451,10.09,8.99,9.944,9.563H7.989c-0.553,0-1,0.448-1,1v1.125
	c0,0.552,0.447,1,1,1h1.955c0.146,0.572,0.372,1.111,0.665,1.608l-1.382,1.382c-0.391,0.39-0.391,1.023,0,1.414l0.795,0.795
	c0.391,0.391,1.023,0.391,1.414,0l1.383-1.382c0.496,0.293,1.035,0.518,1.607,0.665v1.955c0,0.552,0.447,1,1,1h1.125
	c0.552,0,1-0.448,1-1V17.17c0.572-0.147,1.111-0.372,1.607-0.666l1.382,1.382c0.39,0.391,1.023,0.391,1.414,0l0.796-0.795
	c0.391-0.391,0.391-1.023,0-1.414l-1.383-1.382c0.293-0.496,0.518-1.035,0.666-1.607h1.955c0.552,0,1-0.448,1-1v-1.125
	C24.989,10.01,24.541,9.563,23.989,9.563z M15.989,14.375c-1.795,0-3.25-1.455-3.25-3.25s1.455-3.25,3.25-3.25s3.25,1.455,3.25,3.25
	S17.784,14.375,15.989,14.375z"/>
</svg>
