<?xml version="1.0" encoding="utf-8"?>
<!-- Generator: Adobe Illustrator 15.0.0, SVG Export Plug-In  -->
<!DOCTYPE svg PUBLIC "-//W3C//DTD SVG 1.1//EN" "http://www.w3.org/Graphics/SVG/1.1/DTD/svg11.dtd" [
	<!ENTITY ns_flows "http://ns.adobe.com/Flows/1.0/">
]>
<svg version="1.1"
	 xmlns="http://www.w3.org/2000/svg" xmlns:xlink="http://www.w3.org/1999/xlink" xmlns:a="http://ns.adobe.com/AdobeSVGViewerExtensions/3.0/"
	 x="0px" y="0px" width="32px" height="22px" viewBox="0 0 32 22" enable-background="new 0 0 32 22" xml:space="preserve">
<defs>
</defs>
<rect fill="#BE1E2D" width="31.999" height="22"/>
<path fill="#FFFFFF" d="M22.726,12.388c-0.102-1.308-0.135-1.999-0.66-3.125c-0.275-0.592-0.797-1.585-1.258-2.441
	c1-0.331,1.865-0.626,2.244-0.773c0.293-0.114-0.92-3.44-1.07-3.409c-0.83,0.172-9.553,2.526-10.346,2.809
	c-0.729,0.259-3.057,0.73-4.99,1.098c-0.528,1.472,1.199,7.452,4.813,8.588c0.318-1.031,1.709-3.361,2.217-4.275
	c0.508-0.915,1.307-2.253,2.811-2.678c0.951,2.658,2.836,7.928,3.088,8.633c0.113,0.317,0.848,2.036,1.438,3.419h1.625
	c0.889,0.029,1.746-0.298,2.355-0.833c-0.307-0.649-0.699-1.435-0.76-1.605C23.817,16.64,22.825,13.696,22.726,12.388z"/>
</svg>
