<?xml version="1.0" encoding="utf-8"?>
<!-- Generator: Adobe Illustrator 15.0.0, SVG Export Plug-In  -->
<!DOCTYPE svg PUBLIC "-//W3C//DTD SVG 1.1//EN" "http://www.w3.org/Graphics/SVG/1.1/DTD/svg11.dtd" [
	<!ENTITY ns_flows "http://ns.adobe.com/Flows/1.0/">
]>
<svg version="1.1"
	 xmlns="http://www.w3.org/2000/svg" xmlns:xlink="http://www.w3.org/1999/xlink" xmlns:a="http://ns.adobe.com/AdobeSVGViewerExtensions/3.0/"
	 x="0px" y="0px" width="12px" height="12px" viewBox="-0.36 -0.359 12 12" enable-background="new -0.36 -0.359 12 12"
	 xml:space="preserve">
<defs>
</defs>
<circle fill="#58595B" cx="5.64" cy="5.641" r="2.486"/>
<rect x="4.996" fill="#58595B" width="1.289" height="2.395"/>
<rect x="4.996" y="8.887" fill="#58595B" width="1.289" height="2.395"/>
<rect x="8.886" y="4.996" fill="#58595B" width="2.395" height="1.289"/>
<rect y="4.996" fill="#58595B" width="2.395" height="1.289"/>
<rect x="8.137" y="7.584" transform="matrix(-0.7069 0.7073 -0.7073 -0.7069 21.2006 8.7776)" fill="#58595B" width="1.289" height="2.394"/>
<rect x="1.854" y="1.301" transform="matrix(-0.7063 0.7079 -0.7079 -0.7063 6.033 2.4948)" fill="#58595B" width="1.29" height="2.395"/>
<rect x="8.137" y="1.3" transform="matrix(0.7071 0.7071 -0.7071 0.7071 4.3382 -5.4777)" fill="#58595B" width="1.289" height="2.395"/>
<rect x="1.855" y="7.584" transform="matrix(0.7069 0.7073 -0.7073 0.7069 6.9434 0.8061)" fill="#58595B" width="1.289" height="2.394"/>
</svg>
