<?xml version="1.0" encoding="utf-8"?>
<!-- Generator: Adobe Illustrator 15.0.0, SVG Export Plug-In  -->
<!DOCTYPE svg PUBLIC "-//W3C//DTD SVG 1.1//EN" "http://www.w3.org/Graphics/SVG/1.1/DTD/svg11.dtd" [
	<!ENTITY ns_flows "http://ns.adobe.com/Flows/1.0/">
]>
<svg version="1.1"
	 xmlns="http://www.w3.org/2000/svg" xmlns:xlink="http://www.w3.org/1999/xlink" xmlns:a="http://ns.adobe.com/AdobeSVGViewerExtensions/3.0/"
	 x="0px" y="0px" width="32px" height="22px" viewBox="0 -0.001 32 22" enable-background="new 0 -0.001 32 22"
	 xml:space="preserve">
<defs>
</defs>
<g>
	
		<linearGradient id="SVGID_1_" gradientUnits="userSpaceOnUse" x1="93.3306" y1="143.7441" x2="115.3306" y2="143.7441" gradientTransform="matrix(0 1 -1 0 159.7437 -93.3306)">
		<stop  offset="0.5368" style="stop-color:#E6E7E8"/>
		<stop  offset="1" style="stop-color:#F1F2F2"/>
	</linearGradient>
	<rect fill="url(#SVGID_1_)" width="32" height="22"/>
</g>
<circle fill="#999999" cx="16.047" cy="5.828" r="2.313"/>
<path fill="#999999" d="M16.749,8.754c0,0.27-0.219,0.488-0.486,0.488h-0.429c-0.269,0-0.488-0.218-0.488-0.488V6.315
	c0-0.27,0.22-0.487,0.488-0.487h0.429c0.268,0,0.486,0.218,0.486,0.487V8.754z"/>
<path fill="#999999" d="M17.633,14.487c0,0.27-0.219,0.488-0.487,0.488h-2.195c-0.271,0-0.489-0.218-0.489-0.488V9.12
	c0-0.269,0.219-0.488,0.489-0.488h2.195c0.269,0,0.487,0.219,0.487,0.488V14.487z"/>
<path fill="#999999" d="M11.325,12.906c-0.178,0.179-0.468,0.179-0.647,0l0,0c-0.179-0.179-0.179-0.469,0-0.647l3.494-3.493
	c0.179-0.179,0.468-0.179,0.646,0l0,0c0.179,0.179,0.179,0.469,0,0.646L11.325,12.906z"/>
<path fill="#999999" d="M21.417,12.259c0.179,0.178,0.179,0.468,0,0.647l0,0c-0.178,0.179-0.466,0.179-0.645,0l-3.494-3.493
	c-0.179-0.178-0.179-0.468,0-0.646l0,0c0.179-0.179,0.469-0.179,0.646,0L21.417,12.259z"/>
<path fill="#999999" d="M18.121,19.716c0.043,0.266-0.137,0.516-0.404,0.56l-0.121,0.02c-0.266,0.043-0.516-0.139-0.559-0.404
	l-1.264-7.827c-0.043-0.266,0.138-0.516,0.403-0.559l0.121-0.02c0.268-0.043,0.517,0.138,0.56,0.403L18.121,19.716z"/>
<path fill="#999999" d="M13.973,19.716c-0.043,0.266,0.137,0.516,0.404,0.56l0.121,0.02c0.266,0.043,0.516-0.139,0.559-0.404
	l1.264-7.827c0.043-0.266-0.138-0.516-0.403-0.559l-0.121-0.02c-0.268-0.043-0.517,0.138-0.56,0.403L13.973,19.716z"/>
</svg>
