<?xml version="1.0" encoding="utf-8"?>
<!-- Generator: Adobe Illustrator 15.0.0, SVG Export Plug-In  -->
<!DOCTYPE svg PUBLIC "-//W3C//DTD SVG 1.1//EN" "http://www.w3.org/Graphics/SVG/1.1/DTD/svg11.dtd" [
	<!ENTITY ns_flows "http://ns.adobe.com/Flows/1.0/">
]>
<svg version="1.1"
	 xmlns="http://www.w3.org/2000/svg" xmlns:xlink="http://www.w3.org/1999/xlink" xmlns:a="http://ns.adobe.com/AdobeSVGViewerExtensions/3.0/"
	 x="0px" y="0px" width="32px" height="22px" viewBox="0.001 0 32 22" enable-background="new 0.001 0 32 22" xml:space="preserve">
<defs>
</defs>
<g>
	
		<linearGradient id="SVGID_1_" gradientUnits="userSpaceOnUse" x1="66.6016" y1="117.0156" x2="88.6016" y2="117.0156" gradientTransform="matrix(0 -1 1 0 -101.0156 88.6016)">
		<stop  offset="0.5368" style="stop-color:#E6E7E8"/>
		<stop  offset="1" style="stop-color:#F1F2F2"/>
	</linearGradient>
	<rect fill="url(#SVGID_1_)" width="32" height="22"/>
</g>
<circle fill="#00A14B" cx="16.088" cy="4.829" r="2.313"/>
<path fill="#00A14B" d="M16.789,7.756c0,0.27-0.219,0.487-0.486,0.487h-0.429c-0.269,0-0.488-0.218-0.488-0.487V5.316
	c0-0.27,0.22-0.487,0.488-0.487h0.429c0.268,0,0.486,0.218,0.486,0.487V7.756z"/>
<path fill="#00A14B" d="M17.673,13.488c0,0.27-0.219,0.488-0.487,0.488H14.99c-0.271,0-0.489-0.219-0.489-0.488V8.121
	c0-0.269,0.219-0.487,0.489-0.487h2.195c0.269,0,0.487,0.219,0.487,0.487V13.488z"/>
<path fill="#00A14B" d="M15.935,18.855c0,0.269-0.219,0.487-0.487,0.487h-0.123c-0.269,0-0.487-0.219-0.487-0.487v-7.929
	c0-0.27,0.219-0.487,0.487-0.487h0.123c0.269,0,0.487,0.218,0.487,0.487V18.855z"/>
<path fill="#00A14B" d="M17.338,18.855c0,0.269-0.217,0.487-0.488,0.487h-0.122c-0.27,0-0.487-0.219-0.487-0.487v-7.929
	c0-0.27,0.218-0.487,0.487-0.487h0.122c0.271,0,0.488,0.218,0.488,0.487V18.855z"/>
<path fill="#00A14B" d="M11.364,11.907c-0.178,0.179-0.468,0.179-0.647,0l0,0c-0.179-0.179-0.179-0.469,0-0.646l3.494-3.493
	c0.179-0.179,0.468-0.179,0.646,0l0,0c0.179,0.179,0.179,0.469,0,0.646L11.364,11.907z"/>
<path fill="#00A14B" d="M21.456,11.261c0.179,0.178,0.179,0.468,0,0.646l0,0c-0.178,0.179-0.466,0.179-0.645,0l-3.494-3.493
	c-0.179-0.178-0.179-0.468,0-0.646l0,0c0.179-0.179,0.469-0.179,0.646,0L21.456,11.261z"/>
</svg>
