<?xml version="1.0" encoding="utf-8"?>
<!-- Generator: Adobe Illustrator 15.0.0, SVG Export Plug-In  -->
<!DOCTYPE svg PUBLIC "-//W3C//DTD SVG 1.1//EN" "http://www.w3.org/Graphics/SVG/1.1/DTD/svg11.dtd" [
	<!ENTITY ns_flows "http://ns.adobe.com/Flows/1.0/">
]>
<svg version="1.1"
	 xmlns="http://www.w3.org/2000/svg" xmlns:xlink="http://www.w3.org/1999/xlink" xmlns:a="http://ns.adobe.com/AdobeSVGViewerExtensions/3.0/"
	 x="0px" y="0px" width="32px" height="22px" viewBox="0.001 0 32 22" enable-background="new 0.001 0 32 22" xml:space="preserve">
<defs>
</defs>
<g>
	
		<linearGradient id="SVGID_1_" gradientUnits="userSpaceOnUse" x1="85.998" y1="205.0781" x2="107.998" y2="205.0781" gradientTransform="matrix(0 -1 1 0 -189.0781 107.998)">
		<stop  offset="0.5368" style="stop-color:#E6E7E8"/>
		<stop  offset="1" style="stop-color:#F1F2F2"/>
	</linearGradient>
	<rect fill="url(#SVGID_1_)" width="32" height="22"/>
</g>
<path fill="#939598" d="M19.555,7.39c-0.076-0.021-0.119-0.345-0.108-0.561c0.011-0.216-0.043-0.917-0.27-1.509
	c-0.226-0.593-0.604-1.596-0.841-1.833C18.1,3.25,17.605,3.272,17.55,4.091c-0.033,0.474-0.216,0.14-0.237,0.086
	c-0.021-0.054-0.302-0.475-0.442-0.668c-0.14-0.194-0.852-0.528-1.089-0.431c-0.237,0.097-0.27,0.129-0.313,0.55
	s-0.14,1.466,0,1.951c0.141,0.485,0.366,0.733,0.55,1.002s0.366,0.474,0.485,0.69c0.118,0.216,0.259,0.518,0.259,0.787
	s-0.054,0.496-0.064,0.83c-0.012,0.334-0.141,0.765-0.173,0.754s-0.119-0.064-0.345,0.108c-0.227,0.172-0.194,0.28-0.453,0.377
	c-0.259,0.097-0.528-0.054-0.636-0.162c-0.108-0.107-2.652-0.714-3.902,0.193c-1.251,0.907-2.092,1.715-2.243,2.039
	c-0.15,0.323-0.582,1.853-0.409,3.062c0.02,0.139-0.173,0.215-0.259,0.054s-0.162-0.172-0.259-0.227
	c-0.097-0.054-0.216,0.15-0.259,0.317c-0.043,0.168-0.127,0.43-0.107,0.524c0.02,0.093,0.172,0.162,0.097,0.258
	c-0.075,0.097-0.118,0.022-0.227,0.194c-0.107,0.172-0.129,0.259-0.054,0.355c0.075,0.097,0.194,0.42,0.377,0.539
	c0.184,0.119,1.035,0.744,1.122,0.744c0.086,0,0.593-0.065,0.895,0c0.302,0.064,0.452,0.172,0.604,0.237
	c0.151,0.065,0.28,0.162,1.046,0.184s2.264,0.129,2.501,0.108c0.237-0.022,0.852,0.205,1.143-0.259
	c0.291-0.464-0.064-0.345-0.184-0.496c-0.118-0.151-0.409-0.237-0.15-0.399s0.377-0.032,0.571-0.064
	c0.193-0.033,0.107-0.119,0.475-0.248c0.366-0.129,0.593-0.14,0.689-0.021s0.453,0.485,0.582,0.528
	c0.13,0.043,0.657,0.571,0.884,0.593s1.251,0.119,1.692,0.011c0.442-0.108,0.809-0.41,0.108-0.841
	c-0.701-0.431-0.873-0.507-0.96-0.711c-0.086-0.205-0.259-0.571,0.356-0.744c0.614-0.172,0.646-0.226,0.754-0.453
	c0.108-0.227,0.119-0.539,0.141-0.819s-0.078-0.151,0.101-0.528c0.18-0.377,0.158-0.291,0.212-0.797
	c0.054-0.507,0.011-0.507-0.064-0.647c-0.076-0.14-0.356-0.183-0.27-0.41c0.086-0.227,0.075-0.345,0.27-0.388
	c0.193-0.043,0.593-0.011,0.938-0.097c0.345-0.086,0.766-0.431,1.208-1.186c0.063-0.114-0.087-0.528-0.303-0.766
	c-0.215-0.237-0.388-0.453-0.388-0.604S21.56,8.888,21.42,8.619c-0.141-0.27-0.432-0.732-0.518-0.803
	c-0.087-0.071-0.626-0.329-0.776-0.383C19.975,7.379,19.651,7.4,19.555,7.39z"/>
</svg>
