<?xml version="1.0" encoding="utf-8"?>
<!-- Generator: Adobe Illustrator 15.0.0, SVG Export Plug-In  -->
<!DOCTYPE svg PUBLIC "-//W3C//DTD SVG 1.1//EN" "http://www.w3.org/Graphics/SVG/1.1/DTD/svg11.dtd" [
	<!ENTITY ns_flows "http://ns.adobe.com/Flows/1.0/">
]>
<svg version="1.1"
	 xmlns="http://www.w3.org/2000/svg" xmlns:xlink="http://www.w3.org/1999/xlink" xmlns:a="http://ns.adobe.com/AdobeSVGViewerExtensions/3.0/"
	 x="0px" y="0px" width="18px" height="22px" viewBox="-0.403 -0.224 18 22" enable-background="new -0.403 -0.224 18 22"
	 xml:space="preserve">
<defs>
</defs>
<polygon fill="#6D6E71" points="3.407,21.552 0,19.573 2.71,14.906 3.718,14.058 7.556,6.563 10.963,8.542 6.456,15.623 
	6.108,16.901 "/>
<g>
	<radialGradient id="SVGID_1_" cx="8.9893" cy="8.0171" r="7.4805" gradientUnits="userSpaceOnUse">
		<stop  offset="0.6606" style="stop-color:#E6E7E8"/>
		<stop  offset="1" style="stop-color:#FFFFFF"/>
	</radialGradient>
	<path fill="url(#SVGID_1_)" d="M8.981,15.497c-1.311,0-2.607-0.351-3.748-1.013c-1.728-1.003-2.961-2.619-3.473-4.549
		C1.249,8.003,1.52,5.988,2.523,4.261c1.333-2.297,3.814-3.724,6.473-3.724c1.312,0,2.607,0.35,3.749,1.013
		c1.728,1.003,2.961,2.619,3.473,4.549s0.242,3.945-0.762,5.672C14.123,14.069,11.642,15.497,8.981,15.497z"/>
	<path fill="#6D6E71" d="M8.997,1.075L8.997,1.075c1.216,0,2.419,0.325,3.479,0.94c1.603,0.931,2.748,2.431,3.223,4.223
		s0.224,3.662-0.707,5.265c-1.238,2.132-3.541,3.456-6.01,3.456c-1.216,0-2.419-0.325-3.479-0.94
		C3.9,13.088,2.755,11.588,2.28,9.796S2.056,6.134,2.987,4.531C4.226,2.399,6.528,1.075,8.997,1.075 M8.996,0
		C6.233,0,3.545,1.43,2.058,3.991c-2.224,3.828-0.923,8.734,2.905,10.957c1.267,0.736,2.652,1.085,4.018,1.085
		c2.763,0,5.452-1.43,6.939-3.991c2.223-3.828,0.922-8.733-2.906-10.957C11.748,0.35,10.363,0,8.996,0L8.996,0z"/>
</g>
</svg>
