<?xml version="1.0" encoding="utf-8"?>
<!-- Generator: Adobe Illustrator 15.0.0, SVG Export Plug-In  -->
<!DOCTYPE svg PUBLIC "-//W3C//DTD SVG 1.1//EN" "http://www.w3.org/Graphics/SVG/1.1/DTD/svg11.dtd" [
	<!ENTITY ns_flows "http://ns.adobe.com/Flows/1.0/">
]>
<svg version="1.1"
	 xmlns="http://www.w3.org/2000/svg" xmlns:xlink="http://www.w3.org/1999/xlink" xmlns:a="http://ns.adobe.com/AdobeSVGViewerExtensions/3.0/"
	 x="0px" y="0px" width="32px" height="22px" viewBox="-0.001 0 32 22" enable-background="new -0.001 0 32 22"
	 xml:space="preserve">
<defs>
</defs>
<g>
	
		<linearGradient id="SVGID_1_" gradientUnits="userSpaceOnUse" x1="-112.3828" y1="403.459" x2="-90.3828" y2="403.459" gradientTransform="matrix(0 -1 1 0 -387.459 -90.3828)">
		<stop  offset="0.5368" style="stop-color:#E6E7E8"/>
		<stop  offset="1" style="stop-color:#F1F2F2"/>
	</linearGradient>
	<rect fill="url(#SVGID_1_)" width="32" height="22"/>
</g>
<path fill="#808285" d="M21.185,9.987h-1.268c-0.096-0.371-0.242-0.72-0.432-1.042l0.896-0.896c0.252-0.253,0.252-0.664,0-0.917
	l-0.516-0.516c-0.254-0.253-0.664-0.253-0.918,0l-0.895,0.896c-0.322-0.19-0.672-0.335-1.043-0.431V5.815
	c0-0.358-0.289-0.648-0.646-0.648h-0.73c-0.357,0-0.648,0.29-0.648,0.648v1.267c-0.371,0.096-0.719,0.241-1.041,0.431l-0.896-0.896
	c-0.254-0.252-0.664-0.252-0.916,0l-0.516,0.516c-0.254,0.253-0.254,0.664,0,0.917l0.895,0.896c-0.189,0.322-0.336,0.671-0.43,1.042
	h-1.268c-0.359,0-0.648,0.29-0.648,0.648v0.729c0,0.358,0.289,0.648,0.648,0.648h1.268c0.094,0.371,0.24,0.72,0.43,1.042
	l-0.895,0.896c-0.254,0.253-0.254,0.664,0,0.917l0.516,0.516c0.252,0.253,0.662,0.253,0.916,0l0.896-0.896
	c0.322,0.19,0.67,0.335,1.041,0.431v1.267c0,0.358,0.291,0.648,0.648,0.648h0.73c0.357,0,0.646-0.29,0.646-0.648v-1.267
	c0.371-0.096,0.721-0.241,1.043-0.431l0.895,0.896c0.254,0.253,0.664,0.253,0.916,0l0.518-0.516c0.252-0.253,0.252-0.663,0-0.917
	l-0.896-0.896c0.189-0.321,0.336-0.671,0.432-1.042h1.268c0.357,0,0.646-0.29,0.646-0.648v-0.729
	C21.831,10.277,21.542,9.987,21.185,9.987z M15.999,13.106c-1.164,0-2.107-0.943-2.107-2.106s0.943-2.106,2.107-2.106
	S18.104,9.836,18.104,11S17.163,13.106,15.999,13.106z"/>
</svg>
