<?xml version="1.0" encoding="utf-8"?>
<!-- Generator: Adobe Illustrator 15.0.0, SVG Export Plug-In  -->
<!DOCTYPE svg PUBLIC "-//W3C//DTD SVG 1.1//EN" "http://www.w3.org/Graphics/SVG/1.1/DTD/svg11.dtd" [
	<!ENTITY ns_flows "http://ns.adobe.com/Flows/1.0/">
]>
<svg version="1.1"
	 xmlns="http://www.w3.org/2000/svg" xmlns:xlink="http://www.w3.org/1999/xlink" xmlns:a="http://ns.adobe.com/AdobeSVGViewerExtensions/3.0/"
	 x="0px" y="0px" width="32px" height="22px" viewBox="0.001 -0.001 32 22" enable-background="new 0.001 -0.001 32 22"
	 xml:space="preserve">
<defs>
</defs>
<g>
	
		<linearGradient id="SVGID_1_" gradientUnits="userSpaceOnUse" x1="24.8311" y1="212.2432" x2="46.8311" y2="212.2432" gradientTransform="matrix(0 1 -1 0 228.2432 -24.8311)">
		<stop  offset="0.5368" style="stop-color:#E6E7E8"/>
		<stop  offset="1" style="stop-color:#F1F2F2"/>
	</linearGradient>
	<rect fill="url(#SVGID_1_)" width="32" height="22"/>
</g>
<circle fill="#999999" cx="16.701" cy="5.899" r="2.313"/>
<path fill="#999999" d="M17.402,8.826c0,0.27-0.219,0.488-0.486,0.488h-0.429c-0.269,0-0.488-0.218-0.488-0.488V6.386
	c0-0.27,0.22-0.487,0.488-0.487h0.429c0.268,0,0.486,0.218,0.486,0.487V8.826z"/>
<path fill="#999999" d="M18.286,14.559c0,0.27-0.219,0.488-0.487,0.488h-2.195c-0.271,0-0.489-0.218-0.489-0.488V9.191
	c0-0.269,0.219-0.488,0.489-0.488h2.195c0.269,0,0.487,0.219,0.487,0.488V14.559z"/>
<path fill="#999999" d="M16.548,19.925c0,0.269-0.219,0.488-0.487,0.488h-0.123c-0.269,0-0.487-0.219-0.487-0.488v-7.929
	c0-0.269,0.219-0.487,0.487-0.487h0.123c0.269,0,0.487,0.218,0.487,0.487V19.925z"/>
<path fill="#999999" d="M17.951,19.925c0,0.269-0.217,0.488-0.488,0.488h-0.122c-0.27,0-0.487-0.219-0.487-0.488v-7.929
	c0-0.269,0.218-0.487,0.487-0.487h0.122c0.271,0,0.488,0.218,0.488,0.487V19.925z"/>
<path fill="#999999" d="M11.978,12.978c-0.178,0.179-0.468,0.179-0.647,0l0,0c-0.179-0.179-0.179-0.469,0-0.647l3.494-3.493
	c0.179-0.179,0.468-0.179,0.646,0l0,0c0.179,0.179,0.179,0.469,0,0.646L11.978,12.978z"/>
<path fill="#999999" d="M22.069,12.331c0.179,0.178,0.179,0.468,0,0.647l0,0c-0.178,0.179-0.466,0.179-0.645,0l-3.494-3.493
	c-0.179-0.178-0.179-0.468,0-0.646l0,0c0.179-0.179,0.469-0.179,0.646,0L22.069,12.331z"/>
<polygon fill="#999999" points="11.293,11.297 5.799,6.08 5.096,5.898 5.277,6.601 10.494,12.096 9.633,12.958 9.799,13.124 
	10.764,12.384 10.937,12.211 11.977,13.252 12.45,12.779 11.41,11.738 11.582,11.566 12.321,10.602 12.155,10.435 "/>
<path fill="#999999" d="M19.478,7.98c0.556,0.922,2.184,0.917,2.716,0c0.467,0.875,2.269,0.875,2.717,0
	c0.556,0.898-0.188,6.807-2.717,7.824C19.72,14.929,18.957,9.044,19.478,7.98z"/>
</svg>
