<?xml version="1.0" encoding="utf-8"?>
<!-- Generator: Adobe Illustrator 15.0.0, SVG Export Plug-In  -->
<!DOCTYPE svg PUBLIC "-//W3C//DTD SVG 1.1//EN" "http://www.w3.org/Graphics/SVG/1.1/DTD/svg11.dtd" [
	<!ENTITY ns_flows "http://ns.adobe.com/Flows/1.0/">
]>
<svg version="1.1"
	 xmlns="http://www.w3.org/2000/svg" xmlns:xlink="http://www.w3.org/1999/xlink" xmlns:a="http://ns.adobe.com/AdobeSVGViewerExtensions/3.0/"
	 x="0px" y="0px" width="32px" height="22px" viewBox="0.001 0 32 22" enable-background="new 0.001 0 32 22" xml:space="preserve">
<defs>
</defs>
<g>
	
		<linearGradient id="SVGID_1_" gradientUnits="userSpaceOnUse" x1="51.8311" y1="239.2451" x2="73.8311" y2="239.2451" gradientTransform="matrix(0 -1 1 0 -223.2451 73.8311)">
		<stop  offset="0.5368" style="stop-color:#E6E7E8"/>
		<stop  offset="1" style="stop-color:#F1F2F2"/>
	</linearGradient>
	<rect fill="url(#SVGID_1_)" width="32" height="22"/>
</g>
<circle fill="#939598" cx="16.701" cy="4.9" r="2.313"/>
<path fill="#939598" d="M17.402,7.827c0,0.27-0.219,0.488-0.486,0.488h-0.429c-0.269,0-0.488-0.218-0.488-0.488V5.387
	c0-0.27,0.22-0.487,0.488-0.487h0.429c0.268,0,0.486,0.218,0.486,0.487V7.827z"/>
<path fill="#939598" d="M18.286,13.56c0,0.27-0.219,0.488-0.487,0.488h-2.195c-0.271,0-0.489-0.218-0.489-0.488V8.192
	c0-0.269,0.219-0.488,0.489-0.488h2.195c0.269,0,0.487,0.219,0.487,0.488V13.56z"/>
<path fill="#939598" d="M16.548,18.926c0,0.269-0.219,0.488-0.487,0.488h-0.123c-0.269,0-0.487-0.219-0.487-0.488v-7.929
	c0-0.269,0.219-0.487,0.487-0.487h0.123c0.269,0,0.487,0.218,0.487,0.487V18.926z"/>
<path fill="#939598" d="M17.951,18.926c0,0.269-0.217,0.488-0.488,0.488h-0.122c-0.27,0-0.487-0.219-0.487-0.488v-7.929
	c0-0.269,0.218-0.487,0.487-0.487h0.122c0.271,0,0.488,0.218,0.488,0.487V18.926z"/>
<path fill="#939598" d="M11.978,11.979c-0.178,0.179-0.468,0.179-0.647,0l0,0c-0.179-0.179-0.179-0.469,0-0.647l3.494-3.493
	c0.179-0.179,0.468-0.179,0.646,0l0,0c0.179,0.179,0.179,0.469,0,0.646L11.978,11.979z"/>
<path fill="#939598" d="M22.069,11.332c0.179,0.178,0.179,0.468,0,0.647l0,0c-0.178,0.179-0.466,0.179-0.645,0l-3.494-3.493
	c-0.179-0.178-0.179-0.468,0-0.646l0,0c0.179-0.179,0.469-0.179,0.646,0L22.069,11.332z"/>
<polygon fill="#939598" points="11.293,10.298 5.799,5.081 5.096,4.899 5.277,5.602 10.494,11.097 9.633,11.958 9.799,12.125 
	10.764,11.385 10.937,11.212 11.977,12.253 12.45,11.78 11.41,10.739 11.582,10.567 12.321,9.603 12.155,9.436 "/>
<path fill="#939598" d="M19.478,6.981c0.556,0.922,2.184,0.917,2.716,0c0.467,0.875,2.269,0.875,2.717,0
	c0.556,0.898-0.188,6.807-2.717,7.824C19.72,13.93,18.957,8.045,19.478,6.981z"/>
</svg>
